<svg width="1280" height="720" xmlns="http://www.w3.org/2000/svg" xmlns:xlink="http://www.w3.org/1999/xlink" overflow="hidden"><defs><clipPath id="clip0"><rect x="0" y="0" width="1280" height="720"/></clipPath><linearGradient x1="749" y1="459" x2="647" y2="459" gradientUnits="userSpaceOnUse" spreadMethod="reflect" id="fill1"><stop offset="0" stop-color="#CDD6F0"/><stop offset="0.0204082" stop-color="#CED7F0"/><stop offset="0.0408163" stop-color="#D0D9F1"/><stop offset="0.0612245" stop-color="#D2DAF1"/><stop offset="0.0816327" stop-color="#D4DCF2"/><stop offset="0.102041" stop-color="#D6DDF2"/><stop offset="0.122449" stop-color="#D7DEF3"/><stop offset="0.142857" stop-color="#D9E0F3"/><stop offset="0.163265" stop-color="#DBE1F4"/><stop offset="0.183673" stop-color="#DCE2F4"/><stop offset="0.204082" stop-color="#DEE4F5"/><stop offset="0.22449" stop-color="#DFE5F5"/><stop offset="0.244898" stop-color="#E1E6F6"/><stop offset="0.265306" stop-color="#E2E7F6"/><stop offset="0.285714" stop-color="#E4E9F7"/><stop offset="0.306122" stop-color="#E5EAF7"/><stop offset="0.326531" stop-color="#E7EBF7"/><stop offset="0.346939" stop-color="#E8ECF8"/><stop offset="0.367347" stop-color="#E9EDF8"/><stop offset="0.387755" stop-color="#EBEEF9"/><stop offset="0.408163" stop-color="#ECEFF9"/><stop offset="0.428571" stop-color="#EDF0F9"/><stop offset="0.44898" stop-color="#EEF1FA"/><stop offset="0.469388" stop-color="#EFF2FA"/><stop offset="0.489796" stop-color="#F0F3FA"/><stop offset="0.510204" stop-color="#F1F4FB"/><stop offset="0.530612" stop-color="#F2F5FB"/><stop offset="0.55102" stop-color="#F3F5FB"/><stop offset="0.571429" stop-color="#F4F6FB"/><stop offset="0.591837" stop-color="#F5F7FC"/><stop offset="0.612245" stop-color="#F6F8FC"/><stop offset="0.632653" stop-color="#F7F8FC"/><stop offset="0.653061" stop-color="#F8F9FC"/><stop offset="0.673469" stop-color="#F8F9FD"/><stop offset="0.693878" stop-color="#F9FAFD"/><stop offset="0.714286" stop-color="#FAFBFD"/><stop offset="0.734694" stop-color="#FAFBFD"/><stop offset="0.755102" stop-color="#FBFCFD"/><stop offset="0.77551" stop-color="#FBFCFE"/><stop offset="0.795918" stop-color="#FCFCFE"/><stop offset="0.816327" stop-color="#FCFDFE"/><stop offset="0.836735" stop-color="#FDFDFE"/><stop offset="0.857143" stop-color="#FDFDFE"/><stop offset="0.877551" stop-color="#FEFEFE"/><stop offset="0.897959" stop-color="#FEFEFE"/><stop offset="0.918367" stop-color="#FEFEFE"/><stop offset="0.938776" stop-color="#FEFEFE"/><stop offset="0.959184" stop-color="#FEFEFE"/><stop offset="0.979592" stop-color="#FEFEFE"/><stop offset="1" stop-color="#FFFFFF"/></linearGradient><linearGradient x1="445" y1="459" x2="334" y2="459" gradientUnits="userSpaceOnUse" spreadMethod="reflect" id="fill2"><stop offset="0" stop-color="#CDD6F0"/><stop offset="0.0204082" stop-color="#CED7F0"/><stop offset="0.0408163" stop-color="#D0D9F1"/><stop offset="0.0612245" stop-color="#D2DAF1"/><stop offset="0.0816327" stop-color="#D4DCF2"/><stop offset="0.102041" stop-color="#D6DDF2"/><stop offset="0.122449" stop-color="#D7DEF3"/><stop offset="0.142857" stop-color="#D9E0F3"/><stop offset="0.163265" stop-color="#DBE1F4"/><stop offset="0.183673" stop-color="#DCE2F4"/><stop offset="0.204082" stop-color="#DEE4F5"/><stop offset="0.22449" stop-color="#DFE5F5"/><stop offset="0.244898" stop-color="#E1E6F6"/><stop offset="0.265306" stop-color="#E2E7F6"/><stop offset="0.285714" stop-color="#E4E9F7"/><stop offset="0.306122" stop-color="#E5EAF7"/><stop offset="0.326531" stop-color="#E7EBF7"/><stop offset="0.346939" stop-color="#E8ECF8"/><stop offset="0.367347" stop-color="#E9EDF8"/><stop offset="0.387755" stop-color="#EBEEF9"/><stop offset="0.408163" stop-color="#ECEFF9"/><stop offset="0.428571" stop-color="#EDF0F9"/><stop offset="0.44898" stop-color="#EEF1FA"/><stop offset="0.469388" stop-color="#EFF2FA"/><stop offset="0.489796" stop-color="#F0F3FA"/><stop offset="0.510204" stop-color="#F1F4FB"/><stop offset="0.530612" stop-color="#F2F5FB"/><stop offset="0.55102" stop-color="#F3F5FB"/><stop offset="0.571429" stop-color="#F4F6FB"/><stop offset="0.591837" stop-color="#F5F7FC"/><stop offset="0.612245" stop-color="#F6F8FC"/><stop offset="0.632653" stop-color="#F7F8FC"/><stop offset="0.653061" stop-color="#F8F9FC"/><stop offset="0.673469" stop-color="#F8F9FD"/><stop offset="0.693878" stop-color="#F9FAFD"/><stop offset="0.714286" stop-color="#FAFBFD"/><stop offset="0.734694" stop-color="#FAFBFD"/><stop offset="0.755102" stop-color="#FBFCFD"/><stop offset="0.77551" stop-color="#FBFCFE"/><stop offset="0.795918" stop-color="#FCFCFE"/><stop offset="0.816327" stop-color="#FCFDFE"/><stop offset="0.836735" stop-color="#FDFDFE"/><stop offset="0.857143" stop-color="#FDFDFE"/><stop offset="0.877551" stop-color="#FEFEFE"/><stop offset="0.897959" stop-color="#FEFEFE"/><stop offset="0.918367" stop-color="#FEFEFE"/><stop offset="0.938776" stop-color="#FEFEFE"/><stop offset="0.959184" stop-color="#FEFEFE"/><stop offset="0.979592" stop-color="#FEFEFE"/><stop offset="1" stop-color="#FFFFFF"/></linearGradient><linearGradient x1="1027" y1="455" x2="925" y2="455" gradientUnits="userSpaceOnUse" spreadMethod="reflect" id="fill3"><stop offset="0" stop-color="#CDD6F0"/><stop offset="0.0204082" stop-color="#CED7F0"/><stop offset="0.0408163" stop-color="#D0D9F1"/><stop offset="0.0612245" stop-color="#D2DAF1"/><stop offset="0.0816327" stop-color="#D4DCF2"/><stop offset="0.102041" stop-color="#D6DDF2"/><stop offset="0.122449" stop-color="#D7DEF3"/><stop offset="0.142857" stop-color="#D9E0F3"/><stop offset="0.163265" stop-color="#DBE1F4"/><stop offset="0.183673" stop-color="#DCE2F4"/><stop offset="0.204082" stop-color="#DEE4F5"/><stop offset="0.22449" stop-color="#DFE5F5"/><stop offset="0.244898" stop-color="#E1E6F6"/><stop offset="0.265306" stop-color="#E2E7F6"/><stop offset="0.285714" stop-color="#E4E9F7"/><stop offset="0.306122" stop-color="#E5EAF7"/><stop offset="0.326531" stop-color="#E7EBF7"/><stop offset="0.346939" stop-color="#E8ECF8"/><stop offset="0.367347" stop-color="#E9EDF8"/><stop offset="0.387755" stop-color="#EBEEF9"/><stop offset="0.408163" stop-color="#ECEFF9"/><stop offset="0.428571" stop-color="#EDF0F9"/><stop offset="0.44898" stop-color="#EEF1FA"/><stop offset="0.469388" stop-color="#EFF2FA"/><stop offset="0.489796" stop-color="#F0F3FA"/><stop offset="0.510204" stop-color="#F1F4FB"/><stop offset="0.530612" stop-color="#F2F5FB"/><stop offset="0.55102" stop-color="#F3F5FB"/><stop offset="0.571429" stop-color="#F4F6FB"/><stop offset="0.591837" stop-color="#F5F7FC"/><stop offset="0.612245" stop-color="#F6F8FC"/><stop offset="0.632653" stop-color="#F7F8FC"/><stop offset="0.653061" stop-color="#F8F9FC"/><stop offset="0.673469" stop-color="#F8F9FD"/><stop offset="0.693878" stop-color="#F9FAFD"/><stop offset="0.714286" stop-color="#FAFBFD"/><stop offset="0.734694" stop-color="#FAFBFD"/><stop offset="0.755102" stop-color="#FBFCFD"/><stop offset="0.77551" stop-color="#FBFCFE"/><stop offset="0.795918" stop-color="#FCFCFE"/><stop offset="0.816327" stop-color="#FCFDFE"/><stop offset="0.836735" stop-color="#FDFDFE"/><stop offset="0.857143" stop-color="#FDFDFE"/><stop offset="0.877551" stop-color="#FEFEFE"/><stop offset="0.897959" stop-color="#FEFEFE"/><stop offset="0.918367" stop-color="#FEFEFE"/><stop offset="0.938776" stop-color="#FEFEFE"/><stop offset="0.959184" stop-color="#FEFEFE"/><stop offset="0.979592" stop-color="#FEFEFE"/><stop offset="1" stop-color="#FFFFFF"/></linearGradient></defs><g clip-path="url(#clip0)"><rect x="0" y="0" width="1280" height="720" fill="#FFFFFF"/><path d="M71.4808 668.538C76.4353 668.538 80.4296 672.577 80.4296 677.5 80.4296 678.115 80.3912 678.692 80.276 679.269 75.4367 672.038 75.4367 672.038 75.4367 672.038 73.5932 673.885 73.5932 673.885 73.5932 673.885 71.7112 670.808 71.7112 670.808 71.7112 670.808 69.8677 673.885 69.8677 673.885 69.8677 673.885 68.0626 672.077 68.0626 672.077 68.0626 672.077 62.8009 679.538 62.8009 679.538 62.8009 679.538 62.6472 678.885 62.5704 678.192 62.5704 677.5 62.5704 672.577 66.5647 668.538 71.4808 668.538ZM60.2276 672.962C61.495 673.385 61.495 673.385 61.495 673.385 61.4182 673.577 61.4182 673.577 61.4182 673.577 60.2276 673.885 60.2276 673.885 60.2276 673.885 61.1878 674.231 61.1878 674.231 61.1878 674.231 61.1494 674.385 61.1494 674.385 61.1494 674.385 59.8819 673.962 59.8819 673.962 59.8819 673.962 59.9587 673.769 59.9587 673.769 59.9587 673.769 61.1494 673.462 61.1494 673.462 61.1494 673.462 60.1892 673.115 60.1892 673.115 60.1892 673.115 60.2276 672.962 60.2276 672.962 60.2276 672.962ZM60.3428 674.577C60.5733 674.615 60.7269 674.731 60.8421 674.846 60.9189 675 60.9573 675.154 60.9189 675.346 60.9189 675.462 60.8805 675.577 60.8037 675.654 60.7269 675.731 60.6117 675.808 60.4964 675.846 60.3812 675.885 60.266 675.885 60.1508 675.846 59.9972 675.808 59.8819 675.769 59.8051 675.692 59.7283 675.654 59.6515 675.538 59.6131 675.423 59.5747 675.346 59.5747 675.231 59.5747 675.115 59.6131 675 59.6515 674.885 59.7283 674.808 59.8051 674.692 59.9203 674.654 59.9972 674.615 60.1124 674.577 60.2276 674.577 60.3428 674.577ZM60.3044 674.769C60.1508 674.731 60.0356 674.769 59.9203 674.846 59.8051 674.885 59.7667 675 59.7283 675.115 59.6899 675.269 59.7283 675.385 59.8051 675.462 59.8819 675.577 59.9972 675.654 60.1892 675.654 60.3044 675.692 60.3812 675.692 60.458 675.654 60.5349 675.654 60.6117 675.615 60.6885 675.538 60.7269 675.462 60.7653 675.423 60.8037 675.308 60.8037 675.192 60.8037 675.077 60.7269 674.962 60.6501 674.885 60.4964 674.808 60.3044 674.769ZM59.4595 676.231C60.7653 676.346 60.7653 676.346 60.7653 676.346 60.7269 676.962 60.7269 676.962 60.7269 676.962 60.6885 677.077 60.6885 677.154 60.6501 677.231 60.6117 677.269 60.5733 677.308 60.4964 677.346 60.458 677.385 60.3812 677.385 60.3044 677.385 60.2276 677.385 60.1508 677.346 60.074 677.269 60.0356 677.231 59.9972 677.115 59.9972 677 59.9587 677.038 59.9203 677.077 59.9203 677.077 59.8435 677.115 59.8051 677.192 59.7283 677.231 59.3442 677.423 59.3442 677.423 59.3442 677.423 59.3442 677.192 59.3442 677.192 59.3442 677.192 59.6515 677.038 59.6515 677.038 59.6515 677.038 59.7283 677 59.8051 676.962 59.8435 676.923 59.8819 676.923 59.9203 676.885 59.9203 676.846 59.9587 676.846 59.9587 676.808 59.9972 676.769 59.9972 676.769 59.9972 676.731 59.9972 676.692 59.9972 676.462 59.9972 676.462 59.9972 676.462 59.4211 676.423 59.4211 676.423 59.4211 676.423 59.4595 676.231 59.4595 676.231 59.4595 676.231ZM60.1508 676.5C60.1508 676.885 60.1508 676.885 60.1508 676.885 60.1124 676.962 60.1124 677 60.1508 677.038 60.1508 677.115 60.1892 677.154 60.2276 677.154 60.2276 677.192 60.266 677.192 60.3428 677.192 60.3812 677.231 60.458 677.192 60.4964 677.154 60.5349 677.115 60.5733 677.038 60.5733 676.962 60.6117 676.538 60.6117 676.538 60.6117 676.538 60.1508 676.5 60.1508 676.5 60.1508 676.5ZM59.3826 678.192C60.5733 678.115 60.5733 678.115 60.5733 678.115 60.5349 677.692 60.5349 677.692 60.5349 677.692 60.6885 677.654 60.6885 677.654 60.6885 677.654 60.7653 678.731 60.7653 678.731 60.7653 678.731 60.6117 678.731 60.6117 678.731 60.6117 678.731 60.5733 678.308 60.5733 678.308 60.5733 678.308 59.3826 678.385 59.3826 678.385 59.3826 678.385 59.3826 678.192 59.3826 678.192 59.3826 678.192ZM59.4979 679.308C60.8421 679.077 60.8421 679.077 60.8421 679.077 60.8421 679.269 60.8421 679.269 60.8421 679.269 60.3044 679.346 60.3044 679.346 60.3044 679.346 60.4196 680.038 60.4196 680.038 60.4196 680.038 60.9573 679.962 60.9573 679.962 60.9573 679.962 60.9957 680.115 60.9957 680.115 60.9957 680.115 59.6899 680.308 59.6899 680.308 59.6899 680.308 59.6515 680.154 59.6515 680.154 59.6515 680.154 60.266 680.038 60.266 680.038 60.266 680.038 60.1508 679.385 60.1508 679.385 60.1508 679.385 59.5363 679.462 59.5363 679.462 59.5363 679.462 59.4979 679.308 59.4979 679.308 59.4979 679.308ZM59.8435 680.923C61.111 680.5 61.111 680.5 61.111 680.5 61.4182 681.423 61.4182 681.423 61.4182 681.423 61.2646 681.462 61.2646 681.462 61.2646 681.462 61.0341 680.692 61.0341 680.692 61.0341 680.692 60.6501 680.846 60.6501 680.846 60.6501 680.846 60.8805 681.538 60.8805 681.538 60.8805 681.538 60.7269 681.577 60.7269 681.577 60.7269 681.577 60.4964 680.885 60.4964 680.885 60.4964 680.885 60.074 681.038 60.074 681.038 60.074 681.038 60.3044 681.808 60.3044 681.808 60.3044 681.808 60.1508 681.846 60.1508 681.846 60.1508 681.846 59.8435 680.923 59.8435 680.923 59.8435 680.923ZM60.3044 682.231C61.7255 682.077 61.7255 682.077 61.7255 682.077 61.8023 682.231 61.8023 682.231 61.8023 682.231 60.8421 683.308 60.8421 683.308 60.8421 683.308 60.7653 683.154 60.7653 683.154 60.7653 683.154 61.0725 682.808 61.0725 682.808 61.0725 682.808 60.8037 682.308 60.8037 682.308 60.8037 682.308 60.3812 682.385 60.3812 682.385 60.3812 682.385 60.3044 682.231 60.3044 682.231 60.3044 682.231ZM60.9573 682.308C61.1494 682.692 61.1494 682.692 61.1494 682.692 61.4182 682.423 61.4182 682.423 61.4182 682.423 61.495 682.346 61.5718 682.269 61.6102 682.192 61.5334 682.231 61.4566 682.231 61.3798 682.269 60.9573 682.308 60.9573 682.308 60.9573 682.308ZM61.4182 683.423C61.3414 683.5 61.303 683.538 61.2646 683.615 61.2262 683.692 61.2262 683.769 61.2262 683.885 61.2262 683.962 61.2646 684.038 61.3414 684.154 61.3798 684.231 61.4566 684.308 61.5334 684.346 61.6102 684.385 61.6486 684.423 61.7255 684.423 61.8023 684.423 61.8791 684.385 61.9559 684.346 61.9943 684.308 62.0327 684.269 62.0711 684.192 62.1095 684.154 62.1095 684.077 62.1095 684 62.0711 683.923 62.0711 683.846 61.9943 683.692 61.9559 683.577 61.9559 683.462 61.9559 683.423 61.9559 683.385 61.9943 683.346 62.0327 683.308 62.0711 683.308 62.1095 683.269 62.1863 683.308 62.2248 683.308 62.3016 683.385 62.34 683.462 62.4168 683.577 62.4168 683.654 62.4168 683.692 62.4168 683.769 62.3784 683.846 62.3016 683.885 62.4168 684 62.4168 684 62.4168 684 62.4936 683.962 62.532 683.923 62.5704 683.846 62.5704 683.769 62.6088 683.692 62.5704 683.615 62.5704 683.538 62.532 683.462 62.4936 683.385 62.4168 683.308 62.3784 683.231 62.3016 683.192 62.2632 683.154 62.1863 683.115 62.1095 683.115 62.0327 683.115 61.9943 683.154 61.9175 683.192 61.8791 683.231 61.8407 683.269 61.8023 683.308 61.8023 683.346 61.7639 683.423 61.7639 683.5 61.8023 683.538 61.8023 683.654 61.8407 683.769 61.8791 683.885 61.9175 683.962 61.9175 684 61.9175 684.038 61.9175 684.115 61.9175 684.115 61.9175 684.154 61.8791 684.192 61.8407 684.231 61.8023 684.231 61.7639 684.269 61.7255 684.269 61.6871 684.231 61.6486 684.231 61.6102 684.192 61.5334 684.154 61.495 684.115 61.4566 684.077 61.4182 684 61.4182 683.923 61.4182 683.885 61.3798 683.808 61.3798 683.731 61.4182 683.692 61.4182 683.654 61.4566 683.615 61.5334 683.577 61.4182 683.423 61.4182 683.423 61.4182 683.423ZM62.1863 685.231C63.0697 684.462 63.0697 684.462 63.0697 684.462 62.7624 684.115 62.7624 684.115 62.7624 684.115 62.8777 684.038 62.8777 684.038 62.8777 684.038 63.569 684.808 63.569 684.808 63.569 684.808 63.4538 684.923 63.4538 684.923 63.4538 684.923 63.1849 684.615 63.1849 684.615 63.1849 684.615 62.3016 685.385 62.3016 685.385 62.3016 685.385 62.1863 685.231 62.1863 685.231 62.1863 685.231ZM62.9161 686.038C63.6074 686.731 63.6074 686.731 63.6074 686.731 63.7226 686.615 63.7226 686.615 63.7226 686.615 63.1465 686.077 63.1465 686.077 63.1465 686.077 63.4538 685.731 63.4538 685.731 63.4538 685.731 63.9915 686.231 63.9915 686.231 63.9915 686.231 64.1067 686.115 64.1067 686.115 64.1067 686.115 63.569 685.615 63.569 685.615 63.569 685.615 63.8378 685.346 63.8378 685.346 63.8378 685.346 64.4139 685.885 64.4139 685.885 64.4139 685.885 64.5292 685.769 64.5292 685.769 64.5292 685.769 63.8378 685.077 63.8378 685.077 63.8378 685.077 62.9161 686.038 62.9161 686.038 62.9161 686.038ZM64.0683 687.077C64.8364 686 64.8364 686 64.8364 686 65.2973 686.346 65.2973 686.346 65.2973 686.346 65.4125 686.423 65.4893 686.462 65.4893 686.538 65.5277 686.577 65.5661 686.654 65.5661 686.731 65.5661 686.808 65.5277 686.846 65.4893 686.923 65.4125 687 65.3357 687.038 65.2589 687.038 65.1821 687.077 65.0669 687.038 64.9516 687 64.99 687.038 64.99 687.077 65.0285 687.115 65.0285 687.192 65.0285 687.269 65.0285 687.346 64.99 687.769 64.99 687.769 64.99 687.769 64.8364 687.615 64.8364 687.615 64.8364 687.615 64.8364 687.308 64.8364 687.308 64.8364 687.308 64.8364 687.192 64.8364 687.154 64.8364 687.077 64.8364 687.038 64.8364 687 64.8364 686.962 64.798 686.923 64.798 686.923 64.798 686.885 64.7596 686.885 64.7596 686.846 64.7212 686.808 64.5292 686.692 64.5292 686.692 64.5292 686.692 64.1835 687.192 64.1835 687.192 64.1835 687.192 64.0683 687.077 64.0683 687.077 64.0683 687.077ZM64.6444 686.577C64.9516 686.808 64.9516 686.808 64.9516 686.808 64.99 686.846 65.0669 686.885 65.1053 686.885 65.1437 686.885 65.1821 686.885 65.2205 686.885 65.2589 686.885 65.2973 686.846 65.3357 686.808 65.3741 686.769 65.3741 686.692 65.3741 686.654 65.3741 686.577 65.2973 686.538 65.2205 686.462 64.8748 686.231 64.8748 686.231 64.8748 686.231 64.6444 686.577 64.6444 686.577 64.6444 686.577ZM65.4125 688C65.5661 688.077 65.5661 688.077 65.5661 688.077 66.027 687.154 66.027 687.154 66.027 687.154 66.1807 688.423 66.1807 688.423 66.1807 688.423 66.3343 688.5 66.3343 688.5 66.3343 688.5 66.9488 687.308 66.9488 687.308 66.9488 687.308 66.7952 687.231 66.7952 687.231 66.7952 687.231 66.2959 688.154 66.2959 688.154 66.2959 688.154 66.1807 686.923 66.1807 686.923 66.1807 686.923 66.027 686.846 66.027 686.846 66.027 686.846 65.4125 688 65.4125 688 65.4125 688ZM69.2916 689.462C69.138 689.423 69.138 689.423 69.138 689.423 69.33 688.385 69.33 688.385 69.33 688.385 69.2916 688.423 69.2148 688.462 69.138 688.462 69.0996 688.5 69.0228 688.5 68.9844 688.538 68.9844 688.385 68.9844 688.385 68.9844 688.385 69.0996 688.346 69.1764 688.308 69.2532 688.269 69.33 688.231 69.4068 688.154 69.4452 688.115 69.522 688.115 69.522 688.115 69.522 688.115 69.2916 689.462 69.2916 689.462 69.2916 689.462ZM70.3286 689.269C70.4822 689.269 70.4822 689.269 70.4822 689.269 70.4822 689.346 70.5206 689.385 70.559 689.423 70.5974 689.462 70.6358 689.5 70.6743 689.5 70.7511 689.5 70.7895 689.5 70.8279 689.462 70.8663 689.462 70.9047 689.423 70.9047 689.385 70.9431 689.346 70.9815 689.308 70.9815 689.231 71.0199 689.192 71.0199 689.115 71.0199 689.038 71.0199 689.038 71.0199 689.038 71.0199 689 70.9815 689.077 70.9431 689.115 70.9047 689.115 70.8279 689.154 70.7895 689.154 70.7127 689.154 70.5974 689.154 70.5206 689.115 70.4438 689 70.367 688.923 70.3286 688.808 70.367 688.692 70.367 688.538 70.4054 688.462 70.4822 688.385 70.5974 688.308 70.6743 688.269 70.7895 688.269 70.9047 688.269 70.9815 688.308 71.0199 688.385 71.0967 688.423 71.1351 688.5 71.1735 688.577 71.2119 688.654 71.2119 688.808 71.2119 688.962 71.1735 689.115 71.1735 689.269 71.0967 689.346 71.0583 689.462 71.0199 689.538 70.9431 689.577 70.8663 689.615 70.7511 689.654 70.6743 689.615 70.559 689.615 70.4822 689.577 70.4054 689.538 70.367 689.462 70.3286 689.385 70.3286 689.269ZM71.0583 688.731C71.0583 688.654 71.0199 688.577 70.9815 688.5 70.9431 688.462 70.8663 688.423 70.8279 688.423 70.7511 688.423 70.6743 688.423 70.6358 688.5 70.559 688.538 70.5206 688.615 70.5206 688.692 70.5206 688.808 70.5206 688.846 70.559 688.923 70.6358 688.962 70.6743 689 70.7511 689 70.8279 689.038 70.9047 689 70.9431 688.962 71.0199 688.923 71.0199 688.846 71.0583 688.731ZM72.7098 689.423C72.7098 689.577 72.7098 689.577 72.7098 689.577 71.8265 689.654 71.8265 689.654 71.8265 689.654 71.8265 689.615 71.8265 689.577 71.8649 689.538 71.8649 689.462 71.9033 689.423 71.9417 689.346 71.9801 689.308 72.0569 689.231 72.1337 689.115 72.2873 689 72.3642 688.885 72.4026 688.846 72.441 688.769 72.4794 688.692 72.4794 688.615 72.441 688.577 72.441 688.5 72.3642 688.462 72.3257 688.423 72.2873 688.423 72.2105 688.423 72.1337 688.423 72.0569 688.462 72.0185 688.5 71.9801 688.538 71.9417 688.615 71.9417 688.692 71.788 688.692 71.788 688.692 71.788 688.692 71.788 688.577 71.8265 688.462 71.9033 688.423 71.9801 688.346 72.0569 688.308 72.1721 688.269 72.3257 688.269 72.4026 688.308 72.5178 688.346 72.5946 688.423 72.633 688.5 72.633 688.615 72.633 688.654 72.633 688.731 72.633 688.769 72.5946 688.808 72.5562 688.885 72.5178 688.962 72.4794 689 72.4026 689.077 72.2873 689.192 72.2105 689.308 72.1337 689.346 72.1337 689.385 72.0953 689.423 72.0569 689.462 72.0569 689.462 72.7098 689.423 72.7098 689.423 72.7098 689.423ZM73.4011 689.115C73.5548 689.077 73.5548 689.077 73.5548 689.077 73.5932 689.154 73.6316 689.231 73.67 689.269 73.7468 689.308 73.7852 689.308 73.862 689.308 73.9388 689.269 73.9772 689.231 74.0156 689.192 74.0541 689.115 74.0925 689.038 74.0925 688.962 74.0541 688.885 74.0156 688.846 73.9772 688.808 73.9004 688.769 73.862 688.769 73.7852 688.769 73.7468 688.769 73.7084 688.769 73.67 688.808 73.67 688.654 73.67 688.654 73.67 688.654 73.67 688.654 73.67 688.654 73.67 688.654 73.7468 688.654 73.8236 688.615 73.862 688.577 73.9004 688.538 73.9388 688.462 73.9004 688.385 73.9004 688.346 73.862 688.269 73.8236 688.269 73.7852 688.231 73.7084 688.192 73.67 688.231 73.5932 688.231 73.5548 688.269 73.5164 688.308 73.478 688.346 73.478 688.423 73.478 688.5 73.2859 688.5 73.2859 688.5 73.2859 688.5 73.2859 688.385 73.3243 688.308 73.4011 688.231 73.4395 688.154 73.5164 688.115 73.6316 688.077 73.7084 688.077 73.7852 688.077 73.8236 688.115 73.9004 688.115 73.9388 688.154 74.0156 688.192 74.0541 688.231 74.0541 688.308 74.0925 688.346 74.0925 688.423 74.0925 688.462 74.0541 688.538 74.0541 688.577 74.0156 688.615 73.9388 688.654 74.0156 688.654 74.0925 688.692 74.1309 688.731 74.2077 688.769 74.2461 688.846 74.2461 688.923 74.2461 689.038 74.2461 689.154 74.1693 689.269 74.0925 689.346 74.0156 689.423 73.862 689.423 73.7468 689.462 73.67 689.423 73.5548 689.385 73.478 689.308 73.4395 689.231 73.4011 689.115ZM76.8193 686.923C76.973 686.808 76.973 686.808 76.973 686.808 77.3186 687.5 77.3186 687.5 77.3186 687.5 77.3954 687.615 77.4339 687.731 77.4339 687.808 77.4723 687.885 77.4339 687.962 77.3954 688.038 77.357 688.115 77.2802 688.192 77.165 688.269 77.0498 688.308 76.9346 688.346 76.8577 688.346 76.7425 688.346 76.6657 688.308 76.6273 688.269 76.5505 688.192 76.4737 688.115 76.3969 688 76.0512 687.308 76.0512 687.308 76.0512 687.308 76.2048 687.231 76.2048 687.231 76.2048 687.231 76.5505 687.923 76.5505 687.923 76.5505 687.923 76.6273 688 76.6657 688.077 76.7041 688.115 76.7425 688.154 76.8193 688.192 76.8577 688.192 76.9346 688.192 77.0114 688.154 77.0498 688.115 77.165 688.077 77.2418 688 77.2802 687.923 77.2802 687.846 77.2418 687.731 77.165 687.577 76.8193 686.923 76.8193 686.923 76.8193 686.923ZM78.5477 687.385C77.7411 686.346 77.7411 686.346 77.7411 686.346 77.8563 686.231 77.8563 686.231 77.8563 686.231 79.0469 686.615 79.0469 686.615 79.0469 686.615 78.394 685.769 78.394 685.769 78.394 685.769 78.5477 685.692 78.5477 685.692 78.5477 685.692 79.3926 686.731 79.3926 686.731 79.3926 686.731 79.239 686.808 79.239 686.808 79.239 686.808 78.0484 686.462 78.0484 686.462 78.0484 686.462 78.7013 687.269 78.7013 687.269 78.7013 687.269 78.5477 687.385 78.5477 687.385 78.5477 687.385ZM80.2375 685.885C80.3528 685.769 80.3528 685.769 80.3528 685.769 79.3926 684.846 79.3926 684.846 79.3926 684.846 79.2774 684.962 79.2774 684.962 79.2774 684.962 80.2375 685.885 80.2375 685.885 80.2375 685.885ZM81.3513 684.577C79.9687 684.231 79.9687 684.231 79.9687 684.231 80.0839 684.077 80.0839 684.077 80.0839 684.077 81.0825 684.346 81.0825 684.346 81.0825 684.346 81.1593 684.346 81.2361 684.385 81.2745 684.385 81.2361 684.346 81.1977 684.269 81.1593 684.231 80.5448 683.385 80.5448 683.385 80.5448 683.385 80.66 683.231 80.66 683.231 80.66 683.231 81.4666 684.423 81.4666 684.423 81.4666 684.423 81.3513 684.577 81.3513 684.577 81.3513 684.577ZM82.2731 683.077C81.0441 682.538 81.0441 682.538 81.0441 682.538 81.4282 681.654 81.4282 681.654 81.4282 681.654 81.5818 681.731 81.5818 681.731 81.5818 681.731 81.2745 682.462 81.2745 682.462 81.2745 682.462 81.6586 682.615 81.6586 682.615 81.6586 682.615 81.9275 681.962 81.9275 681.962 81.9275 681.962 82.0811 682 82.0811 682 82.0811 682 81.7738 682.692 81.7738 682.692 81.7738 682.692 82.1963 682.885 82.1963 682.885 82.1963 682.885 82.542 682.115 82.542 682.115 82.542 682.115 82.6572 682.192 82.6572 682.192 82.6572 682.192 82.2731 683.077 82.2731 683.077 82.2731 683.077ZM83.0797 681.154C81.7738 680.808 81.7738 680.808 81.7738 680.808 81.9275 680.231 81.9275 680.231 81.9275 680.231 81.9659 680.115 82.0043 680.038 82.0427 680 82.0811 679.923 82.1195 679.885 82.1963 679.885 82.2731 679.846 82.3499 679.846 82.3883 679.885 82.5036 679.885 82.5804 679.962 82.6188 680.038 82.6572 680.115 82.6572 680.192 82.6572 680.346 82.6956 680.308 82.734 680.269 82.734 680.231 82.8108 680.192 82.8876 680.192 82.9644 680.154 83.3869 680.038 83.3869 680.038 83.3869 680.038 83.3101 680.231 83.3101 680.231 83.3101 680.231 83.0028 680.346 83.0028 680.346 83.0028 680.346 82.926 680.346 82.8492 680.385 82.7724 680.423 82.734 680.423 82.6956 680.462 82.6956 680.462 82.6572 680.5 82.6572 680.5 82.6188 680.538 82.6188 680.577 82.6188 680.577 82.5804 680.615 82.542 680.846 82.542 680.846 82.542 680.846 83.1181 681 83.1181 681 83.1181 681 83.0797 681.154 83.0797 681.154 83.0797 681.154ZM82.3883 680.808C82.5036 680.423 82.5036 680.423 82.5036 680.423 82.5036 680.346 82.5036 680.269 82.5036 680.231 82.5036 680.192 82.5036 680.154 82.4651 680.115 82.4267 680.077 82.3883 680.077 82.3499 680.038 82.3115 680.038 82.2347 680.038 82.1963 680.077 82.1579 680.115 82.1195 680.192 82.0811 680.269 81.9659 680.692 81.9659 680.692 81.9659 680.692 82.3883 680.808 82.3883 680.808 82.3883 680.808ZM83.1181 679.038C83.1181 678.846 83.1181 678.846 83.1181 678.846 83.1565 678.846 83.2333 678.846 83.2717 678.808 83.3101 678.808 83.3485 678.731 83.3869 678.692 83.4253 678.615 83.4253 678.577 83.4253 678.5 83.4253 678.423 83.4253 678.346 83.4253 678.308 83.3869 678.269 83.3869 678.231 83.3485 678.192 83.3101 678.154 83.2717 678.154 83.2333 678.154 83.1949 678.154 83.1565 678.154 83.1181 678.154 83.0797 678.192 83.0413 678.231 83.0413 678.269 83.0028 678.308 83.0028 678.385 82.9644 678.5 82.926 678.654 82.8876 678.731 82.8492 678.769 82.8108 678.846 82.7724 678.885 82.734 678.885 82.6572 678.923 82.6188 678.923 82.542 678.923 82.5036 678.923 82.4267 678.923 82.3499 678.885 82.3115 678.808 82.2731 678.769 82.2347 678.692 82.2347 678.615 82.1963 678.538 82.2347 678.462 82.2347 678.346 82.2347 678.269 82.2731 678.192 82.3115 678.115 82.3883 678.077 82.4267 678.038 82.5036 678 82.5804 677.962 82.6572 677.962 82.6572 678.154 82.6572 678.154 82.6572 678.154 82.5804 678.154 82.5036 678.154 82.4651 678.231 82.4267 678.269 82.3883 678.346 82.3883 678.462 82.3499 678.538 82.3883 678.615 82.4267 678.692 82.4651 678.731 82.5036 678.769 82.542 678.769 82.5804 678.769 82.6572 678.769 82.6572 678.731 82.6956 678.692 82.734 678.615 82.7724 678.462 82.8108 678.308 82.8492 678.231 82.8876 678.192 82.926 678.115 82.9644 678.038 83.0413 678 83.0797 678 83.1565 677.962 83.2333 677.962 83.3101 677.962 83.3485 678 83.4253 678.038 83.5021 678.077 83.5405 678.154 83.5405 678.231 83.5789 678.308 83.6174 678.385 83.5789 678.5 83.5789 678.615 83.5405 678.692 83.5021 678.808 83.4637 678.885 83.4253 678.923 83.3485 678.962 83.2717 679 83.1949 679.038 83.1181 679.038ZM83.6174 676.885C82.2731 677 82.2731 677 82.2731 677 82.2731 676.808 82.2731 676.808 82.2731 676.808 83.5789 676.692 83.5789 676.692 83.5789 676.692 83.6174 676.885 83.6174 676.885 83.6174 676.885ZM83.4253 675.192C82.2731 675.423 82.2731 675.423 82.2731 675.423 82.3499 675.846 82.3499 675.846 82.3499 675.846 82.1963 675.885 82.1963 675.885 82.1963 675.885 82.0043 674.846 82.0043 674.846 82.0043 674.846 82.1579 674.808 82.1579 674.808 82.1579 674.808 82.2347 675.231 82.2347 675.231 82.2347 675.231 83.3869 675.038 83.3869 675.038 83.3869 675.038 83.4253 675.192 83.4253 675.192 83.4253 675.192ZM82.8492 673.231C82.3499 673.462 82.3499 673.462 82.3499 673.462 81.8122 674.192 81.8122 674.192 81.8122 674.192 81.7354 674 81.7354 674 81.7354 674 82.0043 673.615 82.0043 673.615 82.0043 673.615 82.0427 673.538 82.1195 673.462 82.1579 673.423 82.0811 673.385 82.0043 673.385 81.889 673.346 81.4282 673.269 81.4282 673.269 81.4282 673.269 81.3513 673.077 81.3513 673.077 81.3513 673.077 82.2731 673.269 82.2731 673.269 82.2731 673.269 82.7724 673.077 82.7724 673.077 82.7724 673.077 82.8492 673.231 82.8492 673.231 82.8492 673.231ZM71.4808 668.038C66.2959 668.038 62.0711 672.308 62.0711 677.5 62.0711 682.692 66.2959 686.962 71.4808 686.962 76.7041 686.962 80.9289 682.692 80.9289 677.5 80.9289 672.308 76.7041 668.038 71.4808 668.038ZM71.4808 668.231C66.4111 668.231 62.2632 672.385 62.2632 677.5 62.2632 682.577 66.4111 686.769 71.4808 686.769 76.5889 686.769 80.7368 682.577 80.7368 677.5 80.7368 672.385 76.5889 668.231 71.4808 668.231ZM71.4808 664C64.0683 664 58 670.038 58 677.5 58 684.923 64.0683 691 71.4808 691 78.9317 691 85 684.923 85 677.5 85 670.038 78.9317 664 71.4808 664ZM71.4808 664.231C64.1835 664.231 58.2304 670.192 58.2304 677.5 58.2304 684.808 64.1835 690.769 71.4808 690.769 78.7781 690.769 84.7312 684.808 84.7312 677.5 84.7312 670.192 78.7781 664.231 71.4808 664.231ZM69.4836 665.692C69.5989 665.731 69.7525 665.846 69.7141 666 69.6757 666.038 69.6757 666.077 69.6757 666.115 69.6757 666.308 69.6757 666.5 69.7141 666.692 69.7141 666.808 69.7909 666.962 69.7141 667.038 69.6373 667.038 69.6373 667 69.5989 667 69.5989 666.923 69.5605 666.885 69.522 666.846 69.5605 666.808 69.5605 666.731 69.5605 666.692 69.522 666.462 69.4836 666.269 69.4836 666.038 69.4452 665.923 69.3684 665.808 69.4452 665.692 69.4452 665.692 69.4452 665.692 69.4836 665.692ZM69.8293 666C70.0213 666 70.175 666 70.2902 666.077 70.2902 666.115 70.2902 666.115 70.2518 666.154 69.9829 666.154 70.0213 666.346 69.7525 666.115 69.7525 666.038 69.7909 666.038 69.8293 666ZM68.6003 666.192C68.7539 666.192 68.8691 666.231 68.9075 666.346 68.9075 666.5 68.9459 666.692 68.9459 666.846 69.0228 666.846 69.0612 666.846 69.0996 666.885 69.0996 666.923 69.0996 666.923 69.0996 666.923 69.0228 667.077 68.9075 667.269 68.7539 667.346 68.6771 667.346 68.6003 667.346 68.4851 667.346 68.4851 667.308 68.4851 667.308 68.4851 667.269 68.4851 667.269 68.4851 667.269 68.4851 667.269 68.5619 667.154 68.7539 667.154 68.7539 666.962 68.7539 666.962 68.7539 666.923 68.7155 666.923 68.6387 666.923 68.6003 666.885 68.5619 666.846 68.5619 666.808 68.5619 666.808 68.5619 666.808 68.6003 666.731 68.6771 666.692 68.7155 666.654 68.7155 666.346 68.5235 666.385 68.4851 666.231 68.4851 666.231 68.5235 666.231 68.5235 666.231 68.5619 666.192 68.5619 666.192 68.6003 666.192ZM70.0213 666.654C70.175 666.654 70.559 666.692 70.5974 666.769 70.6358 666.846 70.6743 666.923 70.7127 666.962 70.7127 667 70.6743 667.077 70.5974 667.038 70.4438 667 70.4054 666.846 70.2134 666.808 70.0597 666.769 70.0597 666.923 69.9061 666.885 69.8293 666.846 69.7909 666.769 69.7525 666.692 69.7909 666.692 69.7909 666.692 69.7909 666.654 69.8677 666.654 69.9445 666.654 70.0213 666.654ZM74.707 666C74.8222 666 74.8606 666.038 74.899 666.115 74.9374 666.231 74.8606 666.269 74.8222 666.346 74.8222 666.423 74.899 666.423 74.8606 666.5 74.8606 666.5 74.8606 666.538 74.8222 666.538 74.6686 666.538 74.5918 666.692 74.4765 666.808 74.3229 666.923 74.0541 667.038 73.7468 667 73.7468 667 73.7468 666.962 73.7468 666.962 73.9388 666.846 74.2461 666.808 74.3613 666.654 74.3613 666.615 74.3613 666.615 74.3229 666.615 74.2077 666.615 74.1309 666.462 74.1309 666.346 74.1309 666.308 74.1309 666.308 74.1693 666.269 74.2077 666.269 74.2461 666.308 74.2845 666.308 74.3997 666.346 74.5918 666.308 74.6686 666.269 74.707 666.154 74.6302 666.077 74.707 666ZM74.6686 666.731C74.9374 666.731 75.2831 667.269 75.091 667.538 75.091 667.538 75.0526 667.538 75.0526 667.577 74.9758 667.462 75.0142 667.346 74.9758 667.231 74.899 667.077 74.6302 666.885 74.5918 666.769 74.6302 666.769 74.6302 666.731 74.6686 666.731ZM63.6458 667.231C63.6458 667.231 63.6074 667.231 63.6074 667.269 63.6074 667.308 63.6074 667.308 63.6074 667.308 63.6458 667.346 63.7226 667.385 63.761 667.423 63.8378 667.538 63.9531 667.692 64.0299 667.808 63.9915 667.962 63.8378 668.115 63.761 668.231 63.761 668.231 63.761 668.269 63.761 668.269 63.7994 668.308 63.8378 668.308 63.8762 668.308 63.9146 668.308 63.9531 668.346 63.9915 668.346 64.1067 668.385 64.1451 668.154 64.1835 668.077 64.1835 668.077 64.1835 668.038 64.1835 668.038 64.2603 668.115 64.3371 668.231 64.3371 668.308 64.2219 668.5 64.0683 668.654 64.0683 668.962 64.0683 669 64.0683 669 64.1067 669 64.3371 669 64.2219 668.769 64.2603 668.615 64.2603 668.5 64.3371 668.462 64.3755 668.385 64.3755 668.385 64.4139 668.385 64.4139 668.385 64.4523 668.423 64.4523 668.462 64.4908 668.5 64.4908 668.5 64.4908 668.5 64.4908 668.5 64.4139 668.577 64.3755 668.615 64.3371 668.731 64.3371 668.731 64.3371 668.731 64.3371 668.769 64.3755 668.885 64.5292 668.731 64.5676 668.692 64.606 668.692 64.606 668.692 64.606 668.692 64.6444 668.808 64.5292 669.231 64.4523 669.346 64.3755 669.308 64.3371 669.231 64.2987 669.192 64.1835 669.154 64.1067 669.077 64.0299 669.038 63.9531 669 63.9531 668.923 63.8762 668.885 63.761 668.846 63.6842 668.962 63.7226 669.038 63.761 669.077 63.8378 669.038 63.9146 669.077 64.0299 669.192 64.1835 669.269 64.2987 669.346 64.3755 669.385 64.4908 669.423 64.5676 669.5 64.606 669.5 64.606 669.538 64.6828 669.577 64.7212 669.692 64.606 669.846 64.6444 669.962 64.6444 669.962 64.6444 670 64.6444 670 64.6444 670 64.6444 670 64.6828 670 64.798 669.846 64.8748 669.192 64.9516 669.115 65.0669 669.269 65.1821 669.423 65.2973 669.577 65.2973 669.577 65.2973 669.577 65.2973 669.577 65.2205 669.615 65.1437 669.615 65.0669 669.615 65.0669 669.615 65.0669 669.654 65.0285 669.654 65.0285 669.654 65.0285 669.654 65.0285 669.692 65.2589 669.692 65.3357 669.769 65.5661 669.731 65.5661 669.692 65.5661 669.692 65.5661 669.692 65.4125 669.5 65.2589 669.308 65.1437 669.115 65.0669 669.038 64.9516 669 64.9132 668.885 64.9516 668.846 64.9516 668.769 64.99 668.731 65.2205 668.731 65.4125 668.731 65.6046 668.692 65.6814 668.692 65.7198 668.769 65.835 668.731 65.9118 668.692 65.9502 668.615 66.027 668.538 66.027 668.538 66.027 668.538 66.027 668.5 65.9886 668.5 65.9886 668.5 65.9886 668.5 65.7966 668.423 65.7582 668.538 65.6046 668.577 65.5277 668.577 65.4509 668.577 65.3741 668.577 65.2589 668.615 65.1437 668.654 64.99 668.654 64.9516 668.577 65.0285 668.423 64.99 668.308 64.9516 668.231 64.9516 668.154 64.9132 668.077 64.9132 668 64.9132 667.923 64.9132 667.885 64.8748 667.808 64.798 667.731 64.6828 667.769 64.6828 667.769 64.6444 667.808 64.6444 667.808 64.6444 667.808 64.6444 667.846 64.6444 667.846 64.6444 667.846 64.7212 667.885 64.7212 667.885 64.8364 668 64.8748 668.423 64.8748 668.615 64.8364 668.615 64.798 668.615 64.7212 668.615 64.6444 668.5 64.5292 668.385 64.4523 668.269 64.4523 668.231 64.4908 668.115 64.5292 668.077 64.5292 668.077 64.5292 668.038 64.5292 668.038 64.4908 668.038 64.4908 668.038 64.4908 668.038 64.4523 668.077 64.4139 668.115 64.4139 668.154 64.4139 668.192 64.3755 668.192 64.3755 668.192 64.3371 668.115 64.1835 667.846 64.2219 667.808 64.2219 667.769 64.3371 667.731 64.3755 667.692 64.3755 667.692 64.3755 667.692 64.3755 667.692 64.3371 667.654 64.3371 667.654 64.2987 667.615 64.2219 667.577 64.1451 667.692 64.1067 667.692 63.9531 667.577 63.9531 667.231 63.6458 667.231ZM64.8748 668.654C64.8364 668.692 64.8364 668.731 64.798 668.731 64.798 668.769 64.8364 668.808 64.8364 668.808 64.8748 668.808 64.8748 668.808 64.8748 668.808 64.8748 668.769 64.8748 668.692 64.8748 668.654 64.8748 668.654 64.8748 668.654 64.8748 668.654ZM64.7212 668.885C64.7212 669.038 64.6828 669.154 64.6444 669.308 64.6444 669.346 64.5676 669.346 64.5676 669.423 64.606 669.423 64.6444 669.462 64.7212 669.462 64.7212 669.423 64.8364 669 64.8364 668.962 64.798 668.962 64.798 668.923 64.7596 668.885 64.7596 668.885 64.7596 668.885 64.7212 668.885ZM79.0853 667.692C78.9317 667.846 78.9317 668.192 78.7781 668.346 78.7013 668.346 78.7013 668.308 78.6629 668.308 78.6629 668.115 78.7397 668.077 78.8165 667.923 78.7781 667.885 78.7781 667.846 78.7781 667.808 78.7397 667.808 78.7397 667.808 78.7013 667.808 78.6245 667.923 78.6245 668.115 78.5477 668.269 78.5092 668.231 78.4324 668.192 78.394 668.192 78.394 668.192 78.3556 668.192 78.3556 668.231 78.3556 668.231 78.3556 668.269 78.3556 668.269 78.4324 668.423 78.4708 668.346 78.4708 668.538 78.4708 668.577 78.5092 668.577 78.5092 668.577 78.5092 668.577 78.5092 668.577 78.5477 668.577 78.5861 668.538 78.5861 668.5 78.6629 668.462 78.7013 668.5 78.7397 668.538 78.7781 668.538 79.0469 668.615 79.0853 668.538 79.2006 668.731 79.2774 668.731 79.3542 668.731 79.431 668.731 79.5846 668.769 79.5462 668.808 79.7767 668.769 79.7767 668.808 79.7767 668.808 79.7767 668.808 79.7767 668.846 79.7767 668.885 79.7383 668.885 79.7383 668.923 79.7383 668.923 79.7383 668.923 79.5462 668.885 79.3926 668.846 79.1622 668.885 79.1622 668.885 79.1622 668.923 79.1622 668.923 79.1622 668.923 79.1622 668.923 79.1622 668.923 79.3926 668.962 79.3542 669.038 79.4694 669.115 79.5462 669.192 79.623 669.154 79.6615 669.231 79.6999 669.269 79.6999 669.269 79.7383 669.269 79.8151 669.154 80.0455 668.962 79.8535 668.769 79.8151 668.692 79.6615 668.731 79.623 668.654 79.6999 668.577 80.3528 668.385 80.276 668.269 80.2375 668.115 80.0455 668.115 79.9687 668 79.9687 668 79.9303 668 79.9303 668 79.8919 668.038 79.8919 668.038 79.8535 668.077 79.8919 668.154 79.9687 668.231 80.0455 668.231 80.0455 668.269 80.0455 668.269 80.0839 668.269 80.0071 668.308 79.9687 668.385 79.8919 668.423 79.8535 668.385 79.7383 668.346 79.6615 668.385 79.623 668.385 79.623 668.385 79.623 668.423 79.6615 668.423 79.6615 668.462 79.6999 668.5 79.6615 668.538 79.3926 668.615 79.3158 668.538 79.3158 668.538 79.3158 668.538 79.3158 668.538 79.3158 668.538 79.2774 668.538 79.2774 668.5 79.431 668.462 79.5462 668.269 79.5462 668.077 79.623 667.962 79.7383 667.885 79.5846 667.692 79.5846 667.692 79.5846 667.731 79.5462 667.731 79.5462 667.731 79.5078 667.769 79.5078 667.808 79.5078 667.846 79.5078 667.846 79.5078 667.846 79.431 667.808 79.431 667.769 79.3926 667.769 79.3542 667.769 79.3542 667.808 79.3158 667.846 79.3158 667.885 79.3158 667.885 79.3542 667.923 79.3542 667.923 79.3542 667.962 79.3542 667.962 79.239 668 79.1622 668.038 79.0853 668.077 79.0853 668.038 79.0469 668.038 79.0469 668.038 79.1238 667.962 79.1622 667.962 79.2006 667.846 79.1622 667.808 79.1238 667.731 79.1238 667.692 79.0853 667.692 79.0853 667.692 79.0853 667.692ZM78.1636 668.038C78.1636 668.038 78.1636 668.038 78.202 668.038 78.202 668.038 78.202 668.038 78.202 668.077 78.2404 668.231 78.01 668.423 77.8563 668.423 77.8563 668.423 77.8179 668.423 77.8179 668.385 77.8563 668.231 78.0484 668.154 78.1636 668.038ZM79.3542 668.077C79.5462 668.115 79.3926 668.308 79.3158 668.346 79.3158 668.346 79.2774 668.346 79.2774 668.346 79.239 668.269 79.239 668.231 79.2006 668.192 79.1622 668.192 79.1238 668.192 79.1238 668.192 79.0469 668.269 79.0853 668.346 79.1238 668.423 79.0469 668.462 78.9701 668.423 78.8933 668.385 78.9317 668.308 78.9701 668.231 79.0085 668.154 79.0853 668.115 79.239 668.154 79.3542 668.077ZM78.4324 668.654C78.4324 668.654 78.394 668.692 78.394 668.731 78.4324 668.808 78.4708 668.846 78.5092 668.885 78.4708 668.923 78.394 668.962 78.3556 669 78.3556 669 78.3556 669 78.3556 669 78.4324 669.038 78.5092 669.038 78.5861 669.038 78.5861 669.038 78.6245 669.077 78.6245 669.077 78.5861 669.154 78.5477 669.192 78.5092 669.269 78.394 669.269 78.2788 669.231 78.1636 669.192 78.1252 669.154 78.0868 669.115 78.01 669.077 77.9715 669.115 77.9715 669.115 77.9715 669.192 78.0484 669.269 78.0868 669.385 78.202 669.385 78.2788 669.346 78.3172 669.346 78.394 669.385 78.4708 669.462 78.0868 669.692 78.0484 669.769 77.9715 669.731 77.8947 669.654 77.8563 669.577 77.8179 669.577 77.8179 669.577 77.8179 669.577 77.8179 669.577 77.8179 669.577 77.8179 669.577 77.8179 669.692 77.8563 669.692 77.8563 669.769 77.8179 669.885 77.9331 670 78.0484 669.962 78.2404 669.846 78.394 669.538 78.5861 669.462 78.6629 669.423 78.7397 669.5 78.8165 669.538 78.8933 669.615 78.8933 669.769 78.9317 669.885 78.9701 669.885 78.9701 669.923 79.0469 669.923 79.0469 669.885 79.0853 669.846 79.0853 669.808 79.0853 669.5 78.9317 669.462 78.6629 669.346 78.6629 669.346 78.6629 669.346 78.6629 669.308 78.7013 669.269 78.7781 669.269 78.8165 669.192 78.8165 669.077 78.7781 669.077 78.7397 669.038 78.7397 669.038 78.7397 669 78.7397 669 78.8933 669.038 78.8933 669.115 78.9701 669 78.9701 668.808 78.7397 668.846 78.6245 668.731 78.5477 668.692 78.5477 668.654 78.4324 668.654ZM75.744 685.385C74.4765 686.077 73.0171 686.462 71.4808 686.462 69.4068 686.462 67.4481 685.731 65.9118 684.5 66.2959 684.269 67.9474 683.385 69.7909 683.731 69.7909 683.731 71.2504 684.077 71.6728 684.423 71.788 684.5 72.0953 684.654 72.5178 684.808 72.2489 683.923 72.2489 683.923 72.2489 683.923 71.4424 683.538 70.2134 683.077 69.5989 683.077 68.5619 683.077 67.909 682.731 65.4125 684.077 65.1821 683.846 64.9516 683.615 64.7596 683.385 65.0669 683.115 66.4879 682 68.7155 682.115 68.7155 682.115 70.2518 682.115 71.9801 683 71.7496 682.154 71.7496 682.154 71.7496 682.154 71.7112 682.154 71.6728 682.115 71.596 682.115 71.596 682.115 69.33 681.115 67.1792 681.577 67.1792 681.577 66.1038 681.654 64.2987 682.808 64.1067 682.577 63.9531 682.308 63.7994 682.038 64.2987 681.654 66.1807 680.346 68.7539 680.5 68.7539 680.5 70.1366 680.423 71.8649 681.423 71.8649 681.423 75.3983 683.192 79.2774 681.923 79.0853 682.269 78.8549 682.615 78.5861 682.923 77.8563 683.115 76.2048 683.423 74.8606 683.154 74.8606 683.154 74.0156 683.077 72.5178 682.5 72.7482 683.308 72.7482 683.308 72.7482 683.308 73.7468 683.654 75.7056 684.154 77.8563 683.808 77.5107 684.115 77.165 684.462 76.7809 684.731 76.0896 684.769 74.7454 684.731 73.1707 684.346 73.1707 684.346 73.0939 684.308 72.9787 684.269 73.1707 685 73.1707 685 73.1707 685 73.9388 685.192 74.8606 685.346 75.744 685.385ZM80.0839 679.962C78.01 680.808 76.0896 681.154 73.7852 680.577 71.1735 679.923 70.9047 678.923 67.909 679 65.3741 679.077 63.6074 680.346 63.1465 680.731 63.2617 681 63.377 681.231 63.4922 681.5 64.99 680.346 66.7952 679.885 68.4082 679.885 70.2134 679.885 71.6344 680.615 71.6344 680.615 71.6344 680.615 73.3627 681.577 75.5519 681.731 77.6259 681.885 79.5078 681.077 79.7383 681 79.8919 680.654 80.0071 680.308 80.0839 679.962Z" fill="#2A458C" fill-rule="evenodd" fill-opacity="0.839216"/><path d="M110.635 673C111.2 673.171 111.871 674.026 111.588 674.709 111.482 674.915 111.376 675.12 111.271 675.325 111.129 676.282 111.024 677.239 110.918 678.197 110.847 678.709 111.2 679.633 110.635 679.872 110.424 679.872 110.388 679.735 110.247 679.598 110.141 679.325 110.071 679.085 109.965 678.812 110.035 678.538 110.106 678.299 110.141 678.026 110.212 676.932 110.282 675.872 110.318 674.778 110.318 674.128 110.035 673.444 110.459 673 110.529 673 110.6 673 110.635 673ZM112.224 674.812C111.976 674.949 111.765 674.983 111.659 675.325 113 676.658 112.965 675.667 114.341 675.906 114.447 675.769 114.482 675.769 114.518 675.564 113.988 675.12 113.176 674.949 112.224 674.812ZM105.624 674.675C106.4 674.778 106.929 675.256 107.071 675.769 107.035 676.624 106.965 677.479 106.929 678.299 107.318 678.436 107.459 678.47 107.706 678.744 107.671 678.812 107.671 678.88 107.671 678.949 107.071 679.598 106.294 680.316 105.482 680.727 105.059 680.59 104.6 680.487 104.141 680.385 104.106 680.282 104.071 680.214 104 680.145 104.035 680.111 104.071 680.043 104.071 680.009 104.6 679.496 105.553 679.598 105.8 678.709 105.765 678.641 105.729 678.573 105.659 678.47 105.2 678.436 104.953 678.265 104.882 677.923 104.882 677.855 104.918 677.786 104.918 677.718 105.129 677.479 105.624 677.376 105.941 677.239 106.153 675.667 105.059 675.735 105.059 674.846 105.129 674.812 105.165 674.812 105.235 674.778 105.341 674.744 105.482 674.709 105.624 674.675ZM112.718 678.299C112.294 678.231 111.871 678.197 111.447 678.162 111.412 678.197 111.341 678.265 111.306 678.299 111.271 678.744 111.518 679.085 111.835 679.256 112.541 679.564 112.824 678.812 113.565 679.154 114.447 679.53 114.624 680.419 115.365 680.795 115.718 681 115.894 680.692 116 680.487 115.859 680.111 115.718 679.735 115.576 679.359 115.294 678.983 113.459 678.402 112.718 678.299Z" fill="#2A458C" fill-rule="evenodd" fill-opacity="0.839216"/><path d="M120.347 674.131C120.733 674 121 674.131 121.178 674.393 121.446 674.852 121.238 675.115 121.238 675.443 121.208 675.771 121.535 675.705 121.535 676.033 121.505 676.098 121.505 676.164 121.475 676.229 120.851 676.426 120.822 677.18 120.525 677.672 120.05 678.426 119.218 679.279 118.059 679.508 118.059 679.443 118.03 679.377 118 679.344 118.535 678.623 119.604 678.131 119.812 677.213 119.782 677.18 119.752 677.18 119.723 677.148 119.307 677.246 118.802 676.852 118.624 676.361 118.653 676.262 118.683 676.164 118.713 676.033 118.891 675.902 119.04 676.066 119.188 676.066 119.604 676 120.257 675.541 120.525 675.279 120.465 674.82 120.198 674.557 120.347 674.131ZM121.03 677.18C121 677.279 120.941 677.344 120.881 677.443 121.149 677.934 122.366 678.229 122.782 678.754 123.139 679.246 123.05 679.771 123.465 680 123.525 679.967 123.584 679.934 123.644 679.902 124 678.492 122.069 676.918 121.03 677.18Z" fill="#2A458C" fill-rule="evenodd" fill-opacity="0.839216"/><path d="M97.0337 666.033C98.382 667.042 97.1011 668.41 97.3034 669.55 97.6404 669.648 98.1461 669.42 98.4494 669.941 98.5506 670.103 98.5169 670.201 98.5169 670.364 98.5169 670.397 98.4831 670.397 98.4831 670.397 98.1798 670.462 97.7079 670.266 97.4719 670.364 97.2022 670.462 96.9326 672.188 96.8652 672.513 96.9326 672.546 97.0337 672.579 97.1348 672.611 97.3371 672.383 97.573 672.253 97.8427 672.285 97.8764 672.318 97.9438 672.318 97.9775 672.351 97.9775 672.416 97.9438 672.481 97.9438 672.546 97.6404 672.709 97.0337 672.904 96.8989 673.165 96.8989 673.979 96.8989 674.793 96.9326 675.607 97.2022 675.77 97.3371 675.835 97.5393 676.063 98.2809 675.184 99.427 673.262 99.427 672.481 99.427 672.285 99.2247 672.09 99.191 671.895 99.2247 671.862 99.2584 671.83 99.2921 671.797 99.427 671.83 99.5618 671.83 99.7303 671.83 100.27 671.96 100.404 672.644 100.337 672.969 100.101 673.262 99.8989 673.556 99.6629 673.849 99.5281 674.239 99.3596 674.663 99.191 675.054 98.8539 675.672 98.1461 676.096 98.0449 676.617 98.618 677.04 99.2584 677.268 99.8652 677.529 100.202 677.789 100.539 678.05 100.876 678.31 101.618 678.636 102.292 678.278 103 679.222 103 679.255 102.966 679.287 102.966 679.32 102.933 679.385 102.865 679.45 102.831 679.483 102.36 679.58 101.854 679.678 101.382 679.776 100.809 679.613 100.843 679.092 100.573 678.799 99.6292 678.213 98.6854 677.594 97.7079 677.008 97.4382 677.008 97.1685 677.17 96.8989 677.301 96.5618 677.92 96.9326 678.473 96.9326 679.059 96.9326 680.362 96.9326 681.6 97.0337 682.837 96.9326 682.902 96.8652 682.967 96.7978 683 95.6517 682.577 95.6517 681.893 94.7079 681.111 94.7416 681.046 94.7753 681.013 94.809 680.948 94.8764 680.981 94.9101 680.981 94.9775 680.981 95.3483 681.176 95.7191 681.339 96.0899 681.534 96.1236 681.534 96.1573 681.502 96.191 681.502 96.191 680.492 96.2247 679.483 96.2247 678.473 95.618 678.375 93.0899 681.013 91.9438 681.176 91.9101 681.144 91.8427 681.111 91.809 681.079 91.809 681.046 91.8427 681.013 91.8764 680.981 92.1124 680.427 93.2921 680.102 93.4607 679.45 93.2584 679.157 93.3258 678.962 93.2584 678.701 92.9888 678.213 92.7528 677.692 92.4831 677.17 92.2472 676.421 91.9775 675.64 91.7416 674.858 91.573 674.435 91.1348 674.305 91 673.914 91.1685 673.49 91.9101 673.295 92.2472 673.946 92.4157 674.272 92.2809 674.598 92.382 674.956 92.5843 675.444 92.7865 675.966 92.9888 676.487 93.0899 676.877 92.9551 677.268 93.2247 677.626 93.8315 677.464 95.9888 676.063 96.2247 675.444 96.191 675.379 96.1236 675.347 96.0562 675.282 95.6854 675.444 94.573 675.51 94.6742 674.761 94.7079 674.728 94.7416 674.695 94.7753 674.663 95.3146 674.337 95.6854 674.337 96.2584 674.305 96.2921 674.272 96.3258 674.239 96.3596 674.207 96.3258 673.946 96.3258 673.718 96.3258 673.458 96.2921 673.425 96.2584 673.425 96.2584 673.393 95.8202 673.523 95.2135 673.556 94.8427 673.881 94.1011 674.565 93.9326 675.803 92.7865 675.151 92.7865 675.021 92.7865 674.923 92.7865 674.793 93.7978 673.49 95.1124 673.393 96.2584 672.969 96.4944 672.546 96.5281 671.764 96.4944 671.341 96.4607 671.341 96.427 671.308 96.3596 671.308 95.9551 671.569 95.0112 672.481 94.5056 671.927 94.4382 671.764 94.3708 671.602 94.3034 671.439 94.0674 671.113 93.9326 671.243 93.7978 670.852 93.8652 670.787 93.8989 670.722 93.9663 670.657 94.7416 670.527 95.9888 670.397 96.6629 669.713 96.6966 668.898 96.7303 668.117 96.764 667.303 96.764 666.944 96.4607 666.586 96.4607 666.228 96.5281 666.195 96.5618 666.13 96.5955 666.098 96.764 666 96.8652 666.065 97.0337 666.033ZM97.3708 676.193C97.2022 676.226 97.0337 676.259 96.8652 676.291 96.764 676.519 96.764 676.584 96.7978 676.747 96.8652 676.78 96.9326 676.78 97 676.812 97.1348 676.617 97.2697 676.421 97.4382 676.226 97.4045 676.193 97.4045 676.193 97.3708 676.193ZM95.9888 676.747C95.4157 677.236 94.8764 677.692 94.3371 678.18 94.0337 678.31 93.764 678.148 93.4944 678.343 93.6292 678.571 93.764 678.831 93.9326 679.092 94.236 678.994 96.0899 677.529 96.1573 677.333 96.1573 677.203 96.1573 677.04 96.1573 676.91 96.0899 676.845 96.0562 676.812 95.9888 676.747Z" fill="#2A458C" fill-rule="evenodd" fill-opacity="0.839216"/><path d="M128.754 669.821C128.825 669.821 128.895 669.786 128.965 669.75 129.211 669.857 129.421 669.964 129.667 670.071 130.018 670.643 129.772 670.929 129.807 671.429 129.842 671.464 129.842 671.464 129.877 671.464 130.193 671.036 130.474 670.607 130.789 670.143 130.754 670.071 130.719 670 130.684 669.929 130.474 669.857 130.404 669.893 130.263 669.643 130.263 669.464 130.298 669.321 130.298 669.143 130.684 668.964 130.789 669.179 131.14 669.071 131.14 669.036 131.14 669 131.14 668.929 130.965 668.679 130.895 668.536 131 668.321 131.035 668.286 131.07 668.25 131.07 668.214 132.263 668.571 132.088 669.179 132.018 670.107 132.719 670.857 132.754 672.036 132.298 672.821 132.368 672.857 132.404 672.929 132.474 672.964 132.509 672.964 132.509 672.929 132.544 672.929 133.14 672.893 134.018 671.893 134.053 671.357 133.842 671.321 133.667 671.321 133.456 671.321 133.421 671.143 133.421 671.179 133.491 671.036 133.737 670.643 134.368 670.571 134.719 670.357 134.825 670 134.93 669.643 135.035 669.286 134.965 669.25 134.93 669.179 134.86 669.143 134.439 669.357 133.807 669.357 133.491 669 133.491 668.821 133.491 668.679 133.526 668.536 133.596 668.464 133.667 668.429 133.737 668.357 134.404 668.571 135.281 668 135.912 668.429 136.579 668.893 134.333 671.714 134.228 672.429 134.649 672.536 135.14 672.071 135.632 672.143 137 672.393 136.684 674 136.544 674.821 136.474 674.857 136.368 674.893 136.263 674.964 135.702 674.643 135.596 674.964 135 674.964 134.123 674.964 134.158 674.643 133.035 675.143 133 675.143 133 675.107 132.965 675.107 132.93 675.036 132.895 674.964 132.895 674.929 133.772 674.071 134.719 673.75 135.526 673.321 135.526 673.25 135.561 673.179 135.596 673.107 135.526 672.929 135.456 672.75 135.386 672.571 135.351 672.571 135.281 672.536 135.246 672.536 134.474 673.357 134.474 673.036 133.737 673.357 133.386 673.607 133.035 673.821 132.684 674.071 131.421 673.571 131.491 674.179 130.123 674.607 129.877 674.607 129.632 674.643 129.386 674.643 129.035 674.964 129.246 675.214 129.175 675.571 129.105 675.607 129.07 675.643 129.035 675.679 128.93 675.679 128.825 675.643 128.754 675.607 128.158 674.643 128.123 675.107 127.281 674.714 127.281 674.643 127.246 674.607 127.246 674.571 127.211 674.393 127.246 674.357 127.316 674.179 127.561 674.143 127.842 674.107 128.088 674.071 128.053 673.25 127.456 672.357 127.386 671.5 127.596 671.357 127.596 671.393 127.772 671.393 127.947 671.464 128.123 671.571 128.263 671.679 128.439 672.536 128.298 673 128.789 673.857 129.035 673.893 129.175 673.929 129.491 673.75 129.632 672.571 128.649 671 128.754 669.821ZM125.737 674.357C125.807 674.321 125.877 674.25 125.947 674.214 125.982 674.25 125.982 674.25 126.018 674.286 126.754 674.857 126.368 676.536 125.667 677.107 125.526 677.071 125.421 677.036 125.316 677 125 676.25 125.702 675.143 125.737 674.357ZM131.211 670.679C130.93 671.214 130.123 671.643 129.912 672.214 130.018 672.643 130.123 673.107 130.228 673.536 130.579 673.536 131.14 673.393 131.211 672.893 130.93 672.714 130.368 672.464 130.579 672 130.684 671.929 130.754 671.857 130.86 671.786 131.211 671.714 131.386 671.857 131.667 672.143 131.772 672.107 131.842 672.036 131.947 671.964 132.193 671.571 132.053 670.143 131.211 670.679ZM128.93 676.107C128.895 676.321 128.86 676.429 129 676.714 129.421 676.893 129.667 676.964 130.053 677.071 130.018 677.357 129.737 677.679 129.632 677.929 129.702 677.964 129.737 678 129.772 678.071 130.123 677.857 130.509 677.643 130.86 677.464 130.93 677.464 130.965 677.464 131.035 677.5 131.246 678 131.07 678.321 131.211 678.821 130.614 679.036 130.018 679.25 129.456 679.464 129.105 679.571 128.754 679.429 128.404 679.571 128.368 679.75 128.368 679.857 128.579 680.107 129 680.214 129.667 680.679 130.193 680.179 130.404 679.964 130.614 679.714 130.93 679.643 131.561 679.679 130.684 682 130.614 682.429 130.228 682.607 129.561 682.429 129.211 682.286 129.14 682.321 129.105 682.357 129.07 682.393 129.07 682.429 129.07 682.464 129.07 682.5 129.386 682.821 129.632 682.679 129.807 683.071 130.088 683.643 130.93 684 131.281 683.357 131.877 682.214 131.561 680.321 132.053 679.393 132.333 679 133.035 679.107 133.421 678.964 133.982 679.179 134.474 679.786 134.965 680.143 135.211 680.143 135.246 680.214 135.561 680 135.596 679.786 135.561 679.643 135.561 679.393 134.404 677.964 133.667 678.214 132.193 678.571 132.053 678.571 132.088 678.571 131.982 678.536 131.982 678.107 132.333 677.821 132.263 677.321 131.982 676.964 131.807 677.036 131.526 676.929 131.526 676.857 131.491 676.821 131.491 676.786 132.088 676.464 132.474 676.821 132.439 676.036 131.737 675.143 130.86 675.964 130.018 676 129.596 676 129.421 675.75 128.93 676.107Z" fill="#2A458C" fill-rule="evenodd" fill-opacity="0.839216"/><path d="M89 688.085C89 685 89 685 89 685 89.4115 685 89.4115 685 89.4115 685 91.0576 687.407 91.0576 687.407 91.0576 687.407 91.0576 685 91.0576 685 91.0576 685 91.4348 685 91.4348 685 91.4348 685 91.4348 688.085 91.4348 688.085 91.4348 688.085 91.0233 688.085 91.0233 688.085 91.0233 688.085 89.3772 685.644 89.3772 685.644 89.3772 685.644 89.3772 688.085 89.3772 688.085 89.3772 688.085 89 688.085 89 688.085 89 688.085ZM92.1893 686.966C92.1893 686.559 92.2922 686.254 92.5322 686.051 92.738 685.881 92.9781 685.78 93.2524 685.78 93.561 685.78 93.8011 685.881 94.0069 686.085 94.2126 686.288 94.3155 686.559 94.3155 686.932 94.3155 687.203 94.2469 687.441 94.1783 687.61 94.0754 687.78 93.9726 687.915 93.8011 687.983 93.6296 688.085 93.4582 688.119 93.2524 688.119 92.9438 688.119 92.6694 688.017 92.4636 687.814 92.2922 687.644 92.1893 687.339 92.1893 686.966ZM92.5665 686.966C92.5665 687.237 92.6351 687.475 92.7723 687.61 92.9095 687.746 93.0466 687.814 93.2524 687.814 93.4239 687.814 93.5953 687.746 93.7325 687.61 93.8354 687.475 93.904 687.237 93.904 686.932 93.904 686.661 93.8354 686.458 93.7325 686.322 93.5953 686.186 93.4239 686.119 93.2524 686.119 93.0466 686.119 92.9095 686.186 92.7723 686.322 92.6351 686.458 92.5665 686.661 92.5665 686.966ZM95.0014 688.085C95.0014 685.847 95.0014 685.847 95.0014 685.847 95.3443 685.847 95.3443 685.847 95.3443 685.847 95.3443 686.186 95.3443 686.186 95.3443 686.186 95.4129 686.017 95.5158 685.915 95.5844 685.881 95.6529 685.814 95.7215 685.78 95.8244 685.78 95.9616 685.78 96.0988 685.847 96.2359 685.915 96.0988 686.254 96.0988 686.254 96.0988 686.254 95.9959 686.22 95.893 686.186 95.8244 686.186 95.7215 686.186 95.6529 686.22 95.5844 686.254 95.5158 686.322 95.4815 686.39 95.4472 686.458 95.4129 686.593 95.3786 686.763 95.3786 686.898 95.3786 688.085 95.3786 688.085 95.3786 688.085 95.0014 688.085 95.0014 688.085 95.0014 688.085ZM97.5391 687.746C97.5734 688.085 97.5734 688.085 97.5734 688.085 97.4705 688.085 97.3676 688.119 97.299 688.119 97.1619 688.119 97.059 688.085 96.9561 688.051 96.8875 687.983 96.8532 687.949 96.8189 687.881 96.7846 687.814 96.7503 687.644 96.7503 687.441 96.7503 686.153 96.7503 686.153 96.7503 686.153 96.476 686.153 96.476 686.153 96.476 686.153 96.476 685.847 96.476 685.847 96.476 685.847 96.7503 685.847 96.7503 685.847 96.7503 685.847 96.7503 685.305 96.7503 685.305 96.7503 685.305 97.1276 685.068 97.1276 685.068 97.1276 685.068 97.1276 685.847 97.1276 685.847 97.1276 685.847 97.5391 685.847 97.5391 685.847 97.5391 685.847 97.5391 686.153 97.5391 686.153 97.5391 686.153 97.1276 686.153 97.1276 686.153 97.1276 686.153 97.1276 687.441 97.1276 687.441 97.1276 687.441 97.1276 687.542 97.1619 687.61 97.1619 687.644 97.1619 687.678 97.1962 687.712 97.2305 687.712 97.2647 687.746 97.299 687.746 97.3676 687.746 97.4019 687.746 97.4705 687.746 97.5391 687.746ZM98.1564 688.085C98.1564 685 98.1564 685 98.1564 685 98.5336 685 98.5336 685 98.5336 685 98.5336 686.085 98.5336 686.085 98.5336 686.085 98.7051 685.881 98.9451 685.78 99.2195 685.78 99.3567 685.78 99.5281 685.814 99.631 685.881 99.7682 685.949 99.8368 686.051 99.9053 686.153 99.9739 686.288 99.9739 686.458 99.9739 686.661 99.9739 688.085 99.9739 688.085 99.9739 688.085 99.5967 688.085 99.5967 688.085 99.5967 688.085 99.5967 686.661 99.5967 686.661 99.5967 686.661 99.5967 686.458 99.5624 686.322 99.4938 686.254 99.3909 686.153 99.2881 686.119 99.1166 686.119 99.0137 686.119 98.9108 686.153 98.808 686.22 98.7051 686.254 98.6365 686.356 98.6022 686.458 98.5336 686.559 98.5336 686.695 98.5336 686.864 98.5336 688.085 98.5336 688.085 98.5336 688.085 98.1564 688.085 98.1564 688.085 98.1564 688.085ZM102.34 687.373C102.752 687.407 102.752 687.407 102.752 687.407 102.683 687.644 102.58 687.814 102.409 687.949 102.237 688.051 102.032 688.119 101.757 688.119 101.414 688.119 101.174 688.017 100.968 687.814 100.763 687.61 100.694 687.339 100.694 686.966 100.694 686.593 100.797 686.322 100.968 686.119 101.174 685.881 101.414 685.78 101.723 685.78 102.032 685.78 102.272 685.881 102.477 686.085 102.683 686.288 102.752 686.593 102.752 686.966 102.752 686.966 102.752 687 102.752 687.068 101.071 687.068 101.071 687.068 101.071 687.068 101.106 687.305 101.174 687.508 101.277 687.61 101.414 687.746 101.586 687.814 101.757 687.814 101.894 687.814 102.032 687.78 102.134 687.712 102.203 687.644 102.306 687.508 102.34 687.373ZM101.106 686.763C102.374 686.763 102.374 686.763 102.374 686.763 102.34 686.559 102.306 686.424 102.203 686.322 102.1 686.186 101.929 686.119 101.757 686.119 101.551 686.119 101.414 686.153 101.311 686.288 101.174 686.39 101.106 686.559 101.106 686.763ZM104.947 687.814C104.809 687.915 104.672 688.017 104.535 688.051 104.398 688.119 104.261 688.119 104.123 688.119 103.883 688.119 103.678 688.085 103.54 687.949 103.403 687.814 103.335 687.678 103.335 687.475 103.335 687.373 103.369 687.271 103.438 687.203 103.472 687.102 103.54 687.034 103.609 686.966 103.712 686.932 103.781 686.864 103.883 686.864 103.986 686.831 104.089 686.797 104.226 686.797 104.535 686.763 104.775 686.695 104.912 686.661 104.912 686.593 104.912 686.559 104.912 686.559 104.912 686.424 104.878 686.288 104.809 686.22 104.706 686.153 104.569 686.119 104.364 686.119 104.192 686.119 104.055 686.153 103.986 686.186 103.883 686.254 103.815 686.39 103.781 686.525 103.403 686.492 103.403 686.492 103.403 686.492 103.438 686.322 103.506 686.186 103.575 686.085 103.643 686.017 103.781 685.915 103.918 685.881 104.055 685.814 104.226 685.78 104.432 685.78 104.638 685.78 104.775 685.814 104.912 685.847 105.015 685.915 105.118 685.949 105.152 686.017 105.221 686.085 105.255 686.186 105.289 686.288 105.289 686.356 105.289 686.458 105.289 686.627 105.289 687.136 105.289 687.136 105.289 687.136 105.289 687.508 105.324 687.712 105.324 687.814 105.358 687.915 105.392 687.983 105.427 688.085 105.015 688.085 105.015 688.085 105.015 688.085 104.981 688.017 104.947 687.915 104.947 687.814ZM104.912 686.966C104.775 687 104.569 687.068 104.295 687.102 104.123 687.136 104.021 687.136 103.952 687.169 103.883 687.203 103.849 687.237 103.815 687.305 103.781 687.339 103.746 687.407 103.746 687.475 103.746 687.576 103.781 687.678 103.883 687.746 103.952 687.814 104.055 687.847 104.226 687.847 104.364 687.847 104.501 687.814 104.604 687.746 104.706 687.678 104.809 687.576 104.844 687.475 104.912 687.373 104.912 687.271 104.912 687.102 104.912 686.966 104.912 686.966 104.912 686.966ZM105.975 687.407C106.353 687.339 106.353 687.339 106.353 687.339 106.387 687.508 106.455 687.61 106.558 687.712 106.627 687.78 106.764 687.814 106.97 687.814 107.141 687.814 107.244 687.78 107.347 687.712 107.416 687.644 107.484 687.542 107.484 687.475 107.484 687.373 107.45 687.305 107.347 687.271 107.313 687.237 107.176 687.169 106.97 687.136 106.695 687.068 106.49 687 106.387 686.966 106.284 686.898 106.181 686.831 106.147 686.729 106.078 686.661 106.044 686.559 106.044 686.424 106.044 686.322 106.078 686.254 106.112 686.153 106.181 686.085 106.215 686.017 106.318 685.949 106.387 685.915 106.455 685.881 106.558 685.847 106.661 685.814 106.764 685.78 106.901 685.78 107.073 685.78 107.21 685.814 107.347 685.881 107.484 685.915 107.587 685.983 107.656 686.085 107.724 686.153 107.759 686.288 107.793 686.424 107.416 686.458 107.416 686.458 107.416 686.458 107.381 686.356 107.347 686.254 107.244 686.186 107.176 686.153 107.073 686.119 106.901 686.119 106.73 686.119 106.627 686.119 106.524 686.186 106.455 686.254 106.421 686.322 106.421 686.39 106.421 686.458 106.455 686.492 106.455 686.525 106.49 686.559 106.558 686.593 106.627 686.627 106.661 686.627 106.764 686.661 106.97 686.729 107.21 686.797 107.416 686.864 107.519 686.898 107.621 686.932 107.724 687 107.759 687.102 107.827 687.169 107.861 687.305 107.861 687.407 107.861 687.542 107.827 687.678 107.759 687.78 107.69 687.881 107.587 687.983 107.416 688.051 107.278 688.085 107.141 688.119 106.97 688.119 106.661 688.119 106.421 688.085 106.284 687.949 106.112 687.814 106.044 687.644 105.975 687.407ZM109.405 687.746C109.439 688.085 109.439 688.085 109.439 688.085 109.336 688.085 109.267 688.119 109.165 688.119 109.027 688.119 108.925 688.085 108.856 688.051 108.753 687.983 108.719 687.949 108.685 687.881 108.65 687.814 108.65 687.644 108.65 687.441 108.65 686.153 108.65 686.153 108.65 686.153 108.342 686.153 108.342 686.153 108.342 686.153 108.342 685.847 108.342 685.847 108.342 685.847 108.65 685.847 108.65 685.847 108.65 685.847 108.65 685.305 108.65 685.305 108.65 685.305 109.027 685.068 109.027 685.068 109.027 685.068 109.027 685.847 109.027 685.847 109.027 685.847 109.405 685.847 109.405 685.847 109.405 685.847 109.405 686.153 109.405 686.153 109.405 686.153 109.027 686.153 109.027 686.153 109.027 686.153 109.027 687.441 109.027 687.441 109.027 687.441 109.027 687.542 109.027 687.61 109.027 687.644 109.062 687.678 109.062 687.712 109.096 687.712 109.13 687.746 109.165 687.746 109.233 687.746 109.267 687.746 109.336 687.746 109.405 687.746ZM111.565 687.373C111.942 687.407 111.942 687.407 111.942 687.407 111.908 687.644 111.771 687.814 111.599 687.949 111.428 688.051 111.222 688.119 110.982 688.119 110.639 688.119 110.365 688.017 110.193 687.814 109.988 687.61 109.885 687.339 109.885 686.966 109.885 686.593 109.988 686.322 110.193 686.119 110.365 685.881 110.639 685.78 110.948 685.78 111.257 685.78 111.497 685.881 111.668 686.085 111.874 686.288 111.977 686.593 111.977 686.966 111.977 686.966 111.977 687 111.977 687.068 110.296 687.068 110.296 687.068 110.296 687.068 110.296 687.305 110.365 687.508 110.502 687.61 110.605 687.746 110.776 687.814 110.982 687.814 111.119 687.814 111.222 687.78 111.325 687.712 111.428 687.644 111.497 687.508 111.565 687.373ZM110.296 686.763C111.565 686.763 111.565 686.763 111.565 686.763 111.565 686.559 111.497 686.424 111.428 686.322 111.291 686.186 111.154 686.119 110.948 686.119 110.776 686.119 110.639 686.153 110.502 686.288 110.399 686.39 110.331 686.559 110.296 686.763ZM112.663 688.085C112.663 685.847 112.663 685.847 112.663 685.847 113.04 685.847 113.04 685.847 113.04 685.847 113.04 686.186 113.04 686.186 113.04 686.186 113.108 686.017 113.177 685.915 113.28 685.881 113.348 685.814 113.417 685.78 113.52 685.78 113.657 685.78 113.76 685.847 113.897 685.915 113.76 686.254 113.76 686.254 113.76 686.254 113.691 686.22 113.588 686.186 113.486 686.186 113.417 686.186 113.348 686.22 113.28 686.254 113.211 686.322 113.143 686.39 113.143 686.458 113.074 686.593 113.074 686.763 113.074 686.898 113.074 688.085 113.074 688.085 113.074 688.085 112.663 688.085 112.663 688.085 112.663 688.085ZM114.377 688.085C114.377 685.847 114.377 685.847 114.377 685.847 114.72 685.847 114.72 685.847 114.72 685.847 114.72 686.153 114.72 686.153 114.72 686.153 114.892 685.915 115.132 685.78 115.44 685.78 115.577 685.78 115.715 685.814 115.818 685.881 115.92 685.915 116.023 685.983 116.058 686.051 116.126 686.119 116.16 686.22 116.195 686.322 116.195 686.424 116.229 686.525 116.229 686.695 116.229 688.085 116.229 688.085 116.229 688.085 115.818 688.085 115.818 688.085 115.818 688.085 115.818 686.729 115.818 686.729 115.818 686.729 115.818 686.559 115.818 686.458 115.783 686.39 115.749 686.288 115.715 686.22 115.612 686.186 115.543 686.153 115.475 686.119 115.372 686.119 115.2 686.119 115.063 686.186 114.926 686.288 114.823 686.39 114.754 686.559 114.754 686.864 114.754 688.085 114.754 688.085 114.754 688.085 114.377 688.085 114.377 688.085 114.377 688.085ZM120.104 685C120.516 685 120.516 685 120.516 685 120.516 686.763 120.516 686.763 120.516 686.763 120.516 687.102 120.481 687.339 120.413 687.508 120.344 687.712 120.207 687.847 120.036 687.949 119.83 688.085 119.59 688.119 119.315 688.119 119.007 688.119 118.767 688.085 118.595 687.983 118.39 687.881 118.252 687.746 118.184 687.542 118.115 687.373 118.081 687.102 118.081 686.763 118.081 685 118.081 685 118.081 685 118.492 685 118.492 685 118.492 685 118.492 686.763 118.492 686.763 118.492 686.763 118.492 687.034 118.492 687.237 118.561 687.373 118.595 687.508 118.698 687.576 118.801 687.644 118.938 687.746 119.075 687.78 119.281 687.78 119.556 687.78 119.796 687.712 119.898 687.542 120.036 687.407 120.104 687.169 120.104 686.763 120.104 685 120.104 685 120.104 685ZM121.407 688.085C121.407 685.847 121.407 685.847 121.407 685.847 121.75 685.847 121.75 685.847 121.75 685.847 121.75 686.153 121.75 686.153 121.75 686.153 121.922 685.915 122.162 685.78 122.471 685.78 122.608 685.78 122.711 685.814 122.848 685.881 122.951 685.915 123.053 685.983 123.088 686.051 123.156 686.119 123.191 686.22 123.225 686.322 123.225 686.424 123.225 686.525 123.225 686.695 123.225 688.085 123.225 688.085 123.225 688.085 122.848 688.085 122.848 688.085 122.848 688.085 122.848 686.729 122.848 686.729 122.848 686.729 122.848 686.559 122.848 686.458 122.813 686.39 122.779 686.288 122.711 686.22 122.642 686.186 122.573 686.153 122.471 686.119 122.368 686.119 122.23 686.119 122.093 686.186 121.956 686.288 121.853 686.39 121.785 686.559 121.785 686.864 121.785 688.085 121.785 688.085 121.785 688.085 121.407 688.085 121.407 688.085 121.407 688.085ZM124.082 685.441C124.082 685 124.082 685 124.082 685 124.46 685 124.46 685 124.46 685 124.46 685.441 124.46 685.441 124.46 685.441 124.082 685.441 124.082 685.441 124.082 685.441ZM124.082 688.085C124.082 685.847 124.082 685.847 124.082 685.847 124.46 685.847 124.46 685.847 124.46 685.847 124.46 688.085 124.46 688.085 124.46 688.085 124.082 688.085 124.082 688.085 124.082 688.085ZM125.9 688.085C125.043 685.847 125.043 685.847 125.043 685.847 125.454 685.847 125.454 685.847 125.454 685.847 125.934 687.169 125.934 687.169 125.934 687.169 126.003 687.339 126.037 687.475 126.071 687.644 126.106 687.508 126.174 687.373 126.209 687.203 126.723 685.847 126.723 685.847 126.723 685.847 127.134 685.847 127.134 685.847 127.134 685.847 126.277 688.085 126.277 688.085 126.277 688.085 125.9 688.085 125.9 688.085 125.9 688.085ZM129.261 687.373C129.638 687.407 129.638 687.407 129.638 687.407 129.569 687.644 129.466 687.814 129.295 687.949 129.123 688.051 128.918 688.119 128.643 688.119 128.3 688.119 128.06 688.017 127.855 687.814 127.683 687.61 127.58 687.339 127.58 686.966 127.58 686.593 127.683 686.322 127.855 686.119 128.06 685.881 128.3 685.78 128.643 685.78 128.918 685.78 129.192 685.881 129.364 686.085 129.569 686.288 129.638 686.593 129.638 686.966 129.638 686.966 129.638 687 129.638 687.068 127.957 687.068 127.957 687.068 127.957 687.068 127.992 687.305 128.06 687.508 128.163 687.61 128.3 687.746 128.472 687.814 128.643 687.814 128.781 687.814 128.918 687.78 129.021 687.712 129.123 687.644 129.192 687.508 129.261 687.373ZM127.992 686.763C129.261 686.763 129.261 686.763 129.261 686.763 129.226 686.559 129.192 686.424 129.089 686.322 128.986 686.186 128.815 686.119 128.643 686.119 128.472 686.119 128.3 686.153 128.198 686.288 128.06 686.39 127.992 686.559 127.992 686.763ZM130.358 688.085C130.358 685.847 130.358 685.847 130.358 685.847 130.701 685.847 130.701 685.847 130.701 685.847 130.701 686.186 130.701 686.186 130.701 686.186 130.804 686.017 130.872 685.915 130.941 685.881 131.01 685.814 131.112 685.78 131.181 685.78 131.318 685.78 131.455 685.847 131.593 685.915 131.455 686.254 131.455 686.254 131.455 686.254 131.353 686.22 131.284 686.186 131.181 686.186 131.078 686.186 131.01 686.22 130.941 686.254 130.872 686.322 130.838 686.39 130.804 686.458 130.77 686.593 130.735 686.763 130.735 686.898 130.735 688.085 130.735 688.085 130.735 688.085 130.358 688.085 130.358 688.085 130.358 688.085ZM131.901 687.407C132.278 687.339 132.278 687.339 132.278 687.339 132.313 687.508 132.381 687.61 132.45 687.712 132.553 687.78 132.69 687.814 132.861 687.814 133.033 687.814 133.17 687.78 133.273 687.712 133.342 687.644 133.376 687.542 133.376 687.475 133.376 687.373 133.342 687.305 133.273 687.271 133.239 687.237 133.102 687.169 132.896 687.136 132.587 687.068 132.416 687 132.313 686.966 132.176 686.898 132.107 686.831 132.038 686.729 132.004 686.661 131.97 686.559 131.97 686.424 131.97 686.322 132.004 686.254 132.038 686.153 132.073 686.085 132.141 686.017 132.21 685.949 132.278 685.915 132.381 685.881 132.484 685.847 132.587 685.814 132.69 685.78 132.793 685.78 132.964 685.78 133.136 685.814 133.273 685.881 133.41 685.915 133.513 685.983 133.582 686.085 133.616 686.153 133.684 686.288 133.684 686.424 133.307 686.458 133.307 686.458 133.307 686.458 133.307 686.356 133.273 686.254 133.17 686.186 133.102 686.153 132.964 686.119 132.827 686.119 132.656 686.119 132.519 686.119 132.45 686.186 132.381 686.254 132.347 686.322 132.347 686.39 132.347 686.458 132.347 686.492 132.381 686.525 132.416 686.559 132.45 686.593 132.519 686.627 132.587 686.627 132.69 686.661 132.861 686.729 133.136 686.797 133.342 686.864 133.444 686.898 133.547 686.932 133.616 687 133.684 687.102 133.753 687.169 133.787 687.305 133.787 687.407 133.787 687.542 133.753 687.678 133.684 687.78 133.582 687.881 133.479 687.983 133.342 688.051 133.204 688.085 133.033 688.119 132.861 688.119 132.587 688.119 132.347 688.085 132.21 687.949 132.038 687.814 131.936 687.644 131.901 687.407ZM134.473 685.441C134.473 685 134.473 685 134.473 685 134.85 685 134.85 685 134.85 685 134.85 685.441 134.85 685.441 134.85 685.441 134.473 685.441 134.473 685.441 134.473 685.441ZM134.473 688.085C134.473 685.847 134.473 685.847 134.473 685.847 134.85 685.847 134.85 685.847 134.85 685.847 134.85 688.085 134.85 688.085 134.85 688.085 134.473 688.085 134.473 688.085 134.473 688.085ZM136.531 687.746C136.565 688.085 136.565 688.085 136.565 688.085 136.462 688.085 136.394 688.119 136.291 688.119 136.154 688.119 136.051 688.085 135.982 688.051 135.879 687.983 135.845 687.949 135.811 687.881 135.776 687.814 135.776 687.644 135.776 687.441 135.776 686.153 135.776 686.153 135.776 686.153 135.468 686.153 135.468 686.153 135.468 686.153 135.468 685.847 135.468 685.847 135.468 685.847 135.776 685.847 135.776 685.847 135.776 685.847 135.776 685.305 135.776 685.305 135.776 685.305 136.154 685.068 136.154 685.068 136.154 685.068 136.154 685.847 136.154 685.847 136.154 685.847 136.531 685.847 136.531 685.847 136.531 685.847 136.531 686.153 136.531 686.153 136.531 686.153 136.154 686.153 136.154 686.153 136.154 686.153 136.154 687.441 136.154 687.441 136.154 687.441 136.154 687.542 136.154 687.61 136.154 687.644 136.188 687.678 136.188 687.712 136.222 687.712 136.257 687.746 136.291 687.746 136.359 687.746 136.394 687.746 136.462 687.746 136.531 687.746ZM137.114 688.932C137.08 688.593 137.08 688.593 137.08 688.593 137.182 688.593 137.251 688.627 137.32 688.627 137.388 688.627 137.457 688.593 137.491 688.559 137.56 688.559 137.594 688.492 137.628 688.458 137.663 688.424 137.697 688.322 137.765 688.186 137.765 688.153 137.765 688.119 137.8 688.085 136.942 685.847 136.942 685.847 136.942 685.847 137.354 685.847 137.354 685.847 137.354 685.847 137.8 687.136 137.8 687.136 137.8 687.136 137.868 687.305 137.937 687.475 137.971 687.644 138.005 687.475 138.074 687.305 138.143 687.136 138.623 685.847 138.623 685.847 138.623 685.847 139 685.847 139 685.847 139 685.847 138.143 688.119 138.143 688.119 138.143 688.119 138.04 688.356 137.971 688.525 137.937 688.627 137.868 688.763 137.765 688.831 137.697 688.898 137.594 688.966 137.491 689 137.388 689 137.285 689 137.217 688.966 137.114 688.932Z" fill="#2A458C" fill-rule="evenodd" fill-opacity="0.839216"/><path d="M58.5001 654.5 1209.57 656.774" stroke="#2A458C" stroke-width="0.666667" stroke-miterlimit="8" fill="none" fill-rule="evenodd"/><path d="M79.2605 52.8948 64.4271 67.7282 64.4271 38.0614Z" fill="#ED5A63" fill-rule="evenodd"/><path d="M58.5001 38.5001 58.5002 68.167" stroke="#2A458C" stroke-width="1.33333" stroke-miterlimit="8" fill="none" fill-rule="evenodd"/><path d="M342.5 53.5001 1209.93 55.2138" stroke="#2A458C" stroke-width="0.666667" stroke-miterlimit="8" fill="none" fill-rule="evenodd"/><path d="M714 494 714 476.5 647 476.5 647 441.5 714 441.5 714 424 749 459Z" fill="url(#fill1)" fill-rule="evenodd"/><path d="M410 494 410 476.5 334 476.5 334 441.5 410 441.5 410 424 445 459Z" fill="url(#fill2)" fill-rule="evenodd"/><text fill="#ED5A63" font-family="Times New Roman,Times New Roman_MSFontService,sans-serif" font-weight="700" font-size="27" transform="translate(101.245 61)">Const Propagation</text><text fill="#8D94B2" font-family="Times New Roman,Times New Roman_MSFontService,sans-serif" font-weight="400" font-size="16" transform="translate(1191.6 684)">4</text><text fill="#BDD7EE" font-family="Microsoft YaHei,Microsoft YaHei_MSFontService,sans-serif" font-weight="400" font-size="16" transform="translate(543.167 684)"></text><text fill="#BDD7EE" font-family="Calibri,Calibri_MSFontService,sans-serif" font-weight="400" font-size="16" transform="translate(642.833 684)"></text><text fill="#BDD7EE" font-family="Calibri,Calibri_MSFontService,sans-serif" font-weight="400" font-size="16" transform="translate(654.5 684)">XXX</text><text fill="#BDD7EE" font-family="Calibri,Calibri_MSFontService,sans-serif" font-weight="400" font-size="16" transform="translate(683.167 684)">XXX</text><text fill="#BDD7EE" font-family="Calibri,Calibri_MSFontService,sans-serif" font-weight="400" font-size="16" transform="translate(711.833 684)">XXX</text><text fill="#2A458C" font-family="Times New Roman,Times New Roman_MSFontService,sans-serif" font-weight="400" font-size="24" transform="translate(108.5 134)">-</text><text fill="#2A458C" font-family="Microsoft YaHei,Microsoft YaHei_MSFontService,sans-serif" font-weight="400" font-size="24" transform="translate(138.5 134)"></text><text fill="#2A458C" font-family="Times New Roman,Times New Roman_MSFontService,sans-serif" font-weight="400" font-size="24" transform="translate(108.5 178)">-</text><text fill="#2A458C" font-family="Microsoft YaHei,Microsoft YaHei_MSFontService,sans-serif" font-weight="400" font-size="24" transform="translate(138.5 178)"></text><text fill="#2A458C" font-family="Times New Roman,Times New Roman_MSFontService,sans-serif" font-weight="400" font-size="24" transform="translate(108.5 221)">-</text><text fill="#2A458C" font-family="Microsoft YaHei,Microsoft YaHei_MSFontService,sans-serif" font-weight="400" font-size="24" transform="translate(138.5 221)"></text><text fill="#2A458C" font-family="Times New Roman,Times New Roman_MSFontService,sans-serif" font-weight="400" font-size="24" transform="translate(354.5 221)">SSA</text><text fill="#2A458C" font-family="Microsoft YaHei,Microsoft YaHei_MSFontService,sans-serif" font-weight="400" font-size="24" transform="translate(398.5 221)"></text><text fill="#2A458C" font-family="Times New Roman,Times New Roman_MSFontService,sans-serif" font-weight="400" font-size="24" transform="translate(108.5 264)">-</text><text fill="#2A458C" font-family="Microsoft YaHei,Microsoft YaHei_MSFontService,sans-serif" font-weight="400" font-size="24" transform="translate(138.5 264)"></text><rect x="120.5" y="333.5" width="225" height="259" stroke="#2A458C" stroke-linejoin="round" stroke-miterlimit="10" fill="none"/><text fill="#0000FF" font-family="Consolas,Consolas_MSFontService,sans-serif" font-weight="400" font-size="19" transform="translate(129.616 356)">int</text><text fill="#001080" font-family="Consolas,Consolas_MSFontService,sans-serif" font-weight="400" font-size="19" transform="translate(170.949 356)">a</text><text font-family="Consolas,Consolas_MSFontService,sans-serif" font-weight="400" font-size="19" transform="translate(191.616 356)">=</text><text fill="#098658" font-family="Consolas,Consolas_MSFontService,sans-serif" font-weight="400" font-size="19" transform="translate(212.282 356)">30</text><text font-family="Consolas,Consolas_MSFontService,sans-serif" font-weight="400" font-size="19" transform="translate(232.949 356)">;</text><text fill="#0000FF" font-family="Consolas,Consolas_MSFontService,sans-serif" font-weight="400" font-size="19" transform="translate(129.616 378)">int</text><text fill="#001080" font-family="Consolas,Consolas_MSFontService,sans-serif" font-weight="400" font-size="19" transform="translate(170.949 378)">b</text><text font-family="Consolas,Consolas_MSFontService,sans-serif" font-weight="400" font-size="19" transform="translate(191.616 378)">=</text><text fill="#098658" font-family="Consolas,Consolas_MSFontService,sans-serif" font-weight="400" font-size="19" transform="translate(212.282 378)">9</text><text font-family="Consolas,Consolas_MSFontService,sans-serif" font-weight="400" font-size="19" transform="translate(232.949 378)">-</text><text fill="#001080" font-family="Consolas,Consolas_MSFontService,sans-serif" font-weight="400" font-size="19" transform="translate(253.616 378)">a</text><text font-family="Consolas,Consolas_MSFontService,sans-serif" font-weight="400" font-size="19" transform="translate(274.282 378)">/</text><text fill="#098658" font-family="Consolas,Consolas_MSFontService,sans-serif" font-weight="400" font-size="19" transform="translate(294.949 378)">5</text><text font-family="Consolas,Consolas_MSFontService,sans-serif" font-weight="400" font-size="19" transform="translate(305.282 378)">;</text><text fill="#0000FF" font-family="Consolas,Consolas_MSFontService,sans-serif" font-weight="400" font-size="19" transform="translate(129.616 400)">int</text><text fill="#001080" font-family="Consolas,Consolas_MSFontService,sans-serif" font-weight="400" font-size="19" transform="translate(170.949 400)">c</text><text font-family="Consolas,Consolas_MSFontService,sans-serif" font-weight="400" font-size="19" transform="translate(181.282 400)">;</text><text fill="#001080" font-family="Consolas,Consolas_MSFontService,sans-serif" font-weight="400" font-size="19" transform="translate(129.616 423)">c</text><text font-family="Consolas,Consolas_MSFontService,sans-serif" font-weight="400" font-size="19" transform="translate(150.282 423)">=</text><text fill="#001080" font-family="Consolas,Consolas_MSFontService,sans-serif" font-weight="400" font-size="19" transform="translate(170.949 423)">b</text><text font-family="Consolas,Consolas_MSFontService,sans-serif" font-weight="400" font-size="19" transform="translate(191.616 423)">*</text><text fill="#098658" font-family="Consolas,Consolas_MSFontService,sans-serif" font-weight="400" font-size="19" transform="translate(212.282 423)">4</text><text font-family="Consolas,Consolas_MSFontService,sans-serif" font-weight="400" font-size="19" transform="translate(222.616 423)">;</text><text fill="#AF00DB" font-family="Consolas,Consolas_MSFontService,sans-serif" font-weight="400" font-size="19" transform="translate(129.616 468)">if</text><text font-family="Consolas,Consolas_MSFontService,sans-serif" font-weight="400" font-size="19" transform="translate(160.616 468)">(c &gt;</text><text fill="#098658" font-family="Consolas,Consolas_MSFontService,sans-serif" font-weight="400" font-size="19" transform="translate(212.282 468)">10</text><text font-family="Consolas,Consolas_MSFontService,sans-serif" font-weight="400" font-size="19" transform="translate(232.949 468)">) {</text><text font-family="Consolas,Consolas_MSFontService,sans-serif" font-weight="400" font-size="19" transform="translate(170.949 490)">c = c</text><text font-family="Consolas,Consolas_MSFontService,sans-serif" font-weight="400" font-size="19" transform="translate(232.949 490)">-</text><text fill="#098658" font-family="Consolas,Consolas_MSFontService,sans-serif" font-weight="400" font-size="19" transform="translate(253.616 490)">10</text><text font-family="Consolas,Consolas_MSFontService,sans-serif" font-weight="400" font-size="19" transform="translate(274.282 490)">;</text><text font-family="Consolas,Consolas_MSFontService,sans-serif" font-weight="400" font-size="19" transform="translate(129.616 512)">}</text><text fill="#AF00DB" font-family="Consolas,Consolas_MSFontService,sans-serif" font-weight="400" font-size="19" transform="translate(150.282 512)">else</text><text font-family="Consolas,Consolas_MSFontService,sans-serif" font-weight="400" font-size="19" transform="translate(201.949 512)">{</text><text font-family="Consolas,Consolas_MSFontService,sans-serif" font-weight="400" font-size="19" transform="translate(170.949 535)">c =</text><text fill="#098658" font-family="Consolas,Consolas_MSFontService,sans-serif" font-weight="400" font-size="19" transform="translate(212.282 535)">100</text><text font-family="Consolas,Consolas_MSFontService,sans-serif" font-weight="400" font-size="19" transform="translate(243.282 535)">;</text><text font-family="Consolas,Consolas_MSFontService,sans-serif" font-weight="400" font-size="19" transform="translate(129.616 557)">}</text><text fill="#AF00DB" font-family="Consolas,Consolas_MSFontService,sans-serif" font-weight="400" font-size="19" transform="translate(129.616 580)">return</text><text font-family="Consolas,Consolas_MSFontService,sans-serif" font-weight="400" font-size="19" transform="translate(201.949 580)">c * (</text><text fill="#098658" font-family="Consolas,Consolas_MSFontService,sans-serif" font-weight="400" font-size="19" transform="translate(253.616 580)">60</text><text font-family="Consolas,Consolas_MSFontService,sans-serif" font-weight="400" font-size="19" transform="translate(284.616 580)">/ a);</text><rect x="749.5" y="360.5" width="170" height="191" stroke="#2A458C" stroke-linejoin="round" stroke-miterlimit="10" fill="none"/><text fill="#0000FF" font-family="Consolas,Consolas_MSFontService,sans-serif" font-weight="400" font-size="19" transform="translate(758.394 383)">int</text><text fill="#001080" font-family="Consolas,Consolas_MSFontService,sans-serif" font-weight="400" font-size="19" transform="translate(799.727 383)">c</text><text font-family="Consolas,Consolas_MSFontService,sans-serif" font-weight="400" font-size="19" transform="translate(810.061 383)">;</text><text fill="#AF00DB" font-family="Consolas,Consolas_MSFontService,sans-serif" font-weight="400" font-size="19" transform="translate(758.394 427)">if</text><text font-family="Consolas,Consolas_MSFontService,sans-serif" font-weight="400" font-size="19" transform="translate(789.394 427)">(</text><text fill="#0000FF" font-family="Consolas,Consolas_MSFontService,sans-serif" font-weight="400" font-size="19" transform="translate(799.727 427)">true</text><text font-family="Consolas,Consolas_MSFontService,sans-serif" font-weight="400" font-size="19" transform="translate(841.061 427)">) {</text><text font-family="Consolas,Consolas_MSFontService,sans-serif" font-weight="400" font-size="19" transform="translate(799.727 450)">c =</text><text fill="#098658" font-family="Consolas,Consolas_MSFontService,sans-serif" font-weight="400" font-size="19" transform="translate(841.061 450)">2</text><text font-family="Consolas,Consolas_MSFontService,sans-serif" font-weight="400" font-size="19" transform="translate(851.394 450)">;</text><text font-family="Consolas,Consolas_MSFontService,sans-serif" font-weight="400" font-size="19" transform="translate(758.394 472)">}</text><text fill="#AF00DB" font-family="Consolas,Consolas_MSFontService,sans-serif" font-weight="400" font-size="19" transform="translate(779.061 472)">else</text><text font-family="Consolas,Consolas_MSFontService,sans-serif" font-weight="400" font-size="19" transform="translate(830.727 472)">{</text><text font-family="Consolas,Consolas_MSFontService,sans-serif" font-weight="400" font-size="19" transform="translate(799.727 495)">c =</text><text fill="#098658" font-family="Consolas,Consolas_MSFontService,sans-serif" font-weight="400" font-size="19" transform="translate(841.061 495)">100</text><text font-family="Consolas,Consolas_MSFontService,sans-serif" font-weight="400" font-size="19" transform="translate(872.061 495)">;</text><text font-family="Consolas,Consolas_MSFontService,sans-serif" font-weight="400" font-size="19" transform="translate(758.394 517)">}</text><text fill="#AF00DB" font-family="Consolas,Consolas_MSFontService,sans-serif" font-weight="400" font-size="19" transform="translate(758.394 539)">return</text><text font-family="Consolas,Consolas_MSFontService,sans-serif" font-weight="400" font-size="19" transform="translate(830.727 539)">c *</text><text fill="#098658" font-family="Consolas,Consolas_MSFontService,sans-serif" font-weight="400" font-size="19" transform="translate(872.061 539)">2</text><text font-family="Consolas,Consolas_MSFontService,sans-serif" font-weight="400" font-size="19" transform="translate(882.394 539)">;</text><rect x="445.5" y="341.5" width="206" height="236" stroke="#2A458C" stroke-linejoin="round" stroke-miterlimit="10" fill="none"/><text fill="#0000FF" font-family="Consolas,Consolas_MSFontService,sans-serif" font-weight="400" font-size="19" transform="translate(454.863 363)">int</text><text fill="#001080" font-family="Consolas,Consolas_MSFontService,sans-serif" font-weight="400" font-size="19" transform="translate(496.197 363)">a</text><text font-family="Consolas,Consolas_MSFontService,sans-serif" font-weight="400" font-size="19" transform="translate(516.863 363)">=</text><text fill="#098658" font-family="Consolas,Consolas_MSFontService,sans-serif" font-weight="400" font-size="19" transform="translate(537.53 363)">30</text><text font-family="Consolas,Consolas_MSFontService,sans-serif" font-weight="400" font-size="19" transform="translate(558.197 363)">;</text><text fill="#0000FF" font-family="Consolas,Consolas_MSFontService,sans-serif" font-weight="400" font-size="19" transform="translate(454.863 385)">int</text><text fill="#001080" font-family="Consolas,Consolas_MSFontService,sans-serif" font-weight="400" font-size="19" transform="translate(496.197 385)">b</text><text font-family="Consolas,Consolas_MSFontService,sans-serif" font-weight="400" font-size="19" transform="translate(516.863 385)">=</text><text fill="#098658" font-family="Consolas,Consolas_MSFontService,sans-serif" font-weight="400" font-size="19" transform="translate(537.53 385)">3</text><text font-family="Consolas,Consolas_MSFontService,sans-serif" font-weight="400" font-size="19" transform="translate(547.863 385)">;</text><text fill="#0000FF" font-family="Consolas,Consolas_MSFontService,sans-serif" font-weight="400" font-size="19" transform="translate(454.863 407)">int</text><text fill="#001080" font-family="Consolas,Consolas_MSFontService,sans-serif" font-weight="400" font-size="19" transform="translate(496.197 407)">c</text><text font-family="Consolas,Consolas_MSFontService,sans-serif" font-weight="400" font-size="19" transform="translate(516.863 407)">=</text><text fill="#098658" font-family="Consolas,Consolas_MSFontService,sans-serif" font-weight="400" font-size="19" transform="translate(537.53 407)">12</text><text font-family="Consolas,Consolas_MSFontService,sans-serif" font-weight="400" font-size="19" transform="translate(558.197 407)">;</text><text fill="#AF00DB" font-family="Consolas,Consolas_MSFontService,sans-serif" font-weight="400" font-size="19" transform="translate(454.863 452)">if</text><text font-family="Consolas,Consolas_MSFontService,sans-serif" font-weight="400" font-size="19" transform="translate(485.863 452)">(c &gt;</text><text fill="#098658" font-family="Consolas,Consolas_MSFontService,sans-serif" font-weight="400" font-size="19" transform="translate(537.53 452)">10</text><text font-family="Consolas,Consolas_MSFontService,sans-serif" font-weight="400" font-size="19" transform="translate(558.197 452)">) {</text><text font-family="Consolas,Consolas_MSFontService,sans-serif" font-weight="400" font-size="19" transform="translate(496.197 475)">c =</text><text fill="#098658" font-family="Consolas,Consolas_MSFontService,sans-serif" font-weight="400" font-size="19" transform="translate(537.53 475)">2</text><text font-family="Consolas,Consolas_MSFontService,sans-serif" font-weight="400" font-size="19" transform="translate(547.863 475)">;</text><text font-family="Consolas,Consolas_MSFontService,sans-serif" font-weight="400" font-size="19" transform="translate(454.863 497)">}</text><text fill="#AF00DB" font-family="Consolas,Consolas_MSFontService,sans-serif" font-weight="400" font-size="19" transform="translate(475.53 497)">else</text><text font-family="Consolas,Consolas_MSFontService,sans-serif" font-weight="400" font-size="19" transform="translate(527.197 497)">{</text><text font-family="Consolas,Consolas_MSFontService,sans-serif" font-weight="400" font-size="19" transform="translate(496.197 519)">c =</text><text fill="#098658" font-family="Consolas,Consolas_MSFontService,sans-serif" font-weight="400" font-size="19" transform="translate(537.53 519)">100</text><text font-family="Consolas,Consolas_MSFontService,sans-serif" font-weight="400" font-size="19" transform="translate(568.53 519)">;</text><text font-family="Consolas,Consolas_MSFontService,sans-serif" font-weight="400" font-size="19" transform="translate(454.863 542)">}</text><text fill="#AF00DB" font-family="Consolas,Consolas_MSFontService,sans-serif" font-weight="400" font-size="19" transform="translate(454.863 564)">return</text><text font-family="Consolas,Consolas_MSFontService,sans-serif" font-weight="400" font-size="19" transform="translate(527.197 564)">c *</text><text fill="#098658" font-family="Consolas,Consolas_MSFontService,sans-serif" font-weight="400" font-size="19" transform="translate(568.53 564)">2</text><text font-family="Consolas,Consolas_MSFontService,sans-serif" font-weight="400" font-size="19" transform="translate(578.863 564)">;</text><path d="M992 490 992 472.5 925 472.5 925 437.5 992 437.5 992 420 1027 455Z" fill="url(#fill3)" fill-rule="evenodd"/><rect x="1033.5" y="439.5" width="117" height="32" stroke="#2A458C" stroke-linejoin="round" stroke-miterlimit="10" fill="none"/><text fill="#AF00DB" font-family="Consolas,Consolas_MSFontService,sans-serif" font-weight="400" font-size="19" transform="translate(1042.94 462)">return</text><text font-family="Consolas,Consolas_MSFontService,sans-serif" font-weight="400" font-size="19" transform="translate(1115.28 462)">4;</text></g></svg>